<?xml version="1.0" encoding="UTF-8"?>
<svg width="103px" height="138px" viewBox="0 0 103 138" version="1.1" xmlns="http://www.w3.org/2000/svg" xmlns:xlink="http://www.w3.org/1999/xlink">
    <title>soccer-tema-vitesse-color</title>
    <g id="soccer-tema-vitesse-color" stroke="none" stroke-width="1" fill="none" fill-rule="evenodd">
        <rect id="Rectangle" fill="#FFFFFF" x="0" y="0" width="103.235294" height="138"></rect>
        <g id="vitesse" transform="translate(23.000000, 20.000000)">
            <path d="M0,0 L0,74.9197685 C6.43660687,84.3995696 17.0173305,90.5890343 28.9947096,90.5890343 C40.9720888,90.5890343 51.56692,84.3890908 58,74.898811 L58,0.0384221854 L0,0 Z" id="Path" fill="#FFFFFF" fill-rule="nonzero"></path>
            <path d="M29.0052904,89.0102318 C18.1283065,89.0102318 7.84384311,83.5263381 1.44250532,74.3189853 L1.44250532,1.25046749 L56.582183,1.27142504 L56.582183,74.2980277 C50.1667376,83.5193522 39.8893281,89.0102318 29.0052904,89.0102318 Z" id="Path" fill="#FFD500" fill-rule="nonzero"></path>
            <path d="M29.0934631,1.26094627 L29.0934631,89.0067389 C39.9457586,88.9753025 50.1878991,83.4914088 56.582183,74.2980277 L56.582183,1.27142504 L29.0934631,1.26094627 Z" id="Path" fill="#1D1D1B" fill-rule="nonzero"></path>
            <rect id="Rectangle" fill="#1D1D1B" fill-rule="nonzero" x="1.46719368" y="1.25396041" width="55.1079355" height="17.7859789"></rect>
            <polygon id="Path" fill="#FFFFFF" fill-rule="nonzero" points="8.89133475 14.7261758 8.93365765 14.7261758 9.99173001 3.09473239 12.555792 3.09473239 10.6371542 17.3249127 6.86336272 17.3249127 5.17044694 3.09473239 8.11541502 3.09473239"></polygon>
            <polygon id="Path" fill="#FFFFFF" fill-rule="nonzero" points="13.6138644 17.3249127 13.6138644 3.09473239 16.4565521 3.09473239 16.4565521 17.3249127"></polygon>
            <polygon id="Path" fill="#FFFFFF" fill-rule="nonzero" points="22.2865309 17.3249127 19.4438431 17.3249127 19.4438431 5.13460114 17.5252052 5.13460114 17.5252052 3.09473239 24.2051687 3.09473239 24.2051687 5.13460114 22.2865309 5.13460114"></polygon>
            <polygon id="Path" fill="#FFFFFF" fill-rule="nonzero" points="25.0904226 17.3249127 25.0904226 3.09473239 30.4195804 3.09473239 30.4195804 5.13460114 27.9507449 5.13460114 27.9507449 8.39000811 30.3314077 8.39000811 30.3314077 10.4298769 27.9507449 10.4298769 27.9507449 15.2850439 30.4195804 15.2850439 30.4195804 17.3249127"></polygon>
            <path d="M35.5300699,8.03023674 L35.5300699,5.87510144 C35.5300699,5.47341495 35.3925205,4.93550436 34.9481301,4.93550436 C34.5037397,4.93550436 34.4437823,5.47341495 34.4437823,5.87510144 C34.5107936,9.85005116 38.3903922,8.52972515 38.3903922,13.7656211 L38.3903922,15.0056099 C38.3903922,16.9022686 36.7962299,17.6043468 35.0433566,17.6043468 C33.2904834,17.6043468 31.6927942,16.9057616 31.6927942,15.0056099 L31.6927942,11.9143704 L34.4825783,11.9143704 L34.4825783,14.5585153 C34.4825783,14.9602018 34.5989663,15.4981124 35.0433566,15.4981124 C35.487747,15.4981124 35.5477045,14.9602018 35.5477045,14.5585153 C35.487747,9.98278234 31.5940407,10.4822708 31.5940407,7.22337085 L31.5940407,5.44547155 C31.5940407,3.54881276 33.1846762,2.84673464 34.9410763,2.84673464 C36.6974764,2.84673464 38.2916388,3.54531983 38.2916388,5.44547155 L38.2916388,8.06167308 L35.5300699,8.03023674 Z" id="Path" fill="#FFFFFF" fill-rule="nonzero"></path>
            <path d="M43.6525388,8.03023674 L43.6525388,5.87510144 C43.6525388,5.47341495 43.5149894,4.93550436 43.070599,4.93550436 C42.6262086,4.93550436 42.5662511,5.47341495 42.5662511,5.87510144 C42.64737,9.85005116 46.5199149,8.52972515 46.5199149,13.7656211 L46.5199149,15.0056099 C46.5199149,16.9022686 44.9292794,17.6043468 43.1728793,17.6043468 C41.4164792,17.6043468 39.8223168,16.9057616 39.8223168,15.0056099 L39.8223168,11.9143704 L42.6226817,11.9143704 L42.6226817,14.5585153 C42.6226817,14.9602018 42.7390696,15.4981124 43.18346,15.4981124 C43.6278504,15.4981124 43.6878078,14.9602018 43.6878078,14.5585153 C43.6278504,9.98278234 39.7341441,10.4822708 39.7341441,7.22337085 L39.7341441,5.44547155 C39.7341441,3.54881276 41.3283065,2.84673464 43.0811797,2.84673464 C44.8340529,2.84673464 46.4317422,3.54531983 46.4317422,5.44547155 L46.4317422,8.06167308 L43.6525388,8.03023674 Z" id="Path" fill="#FFFFFF" fill-rule="nonzero"></path>
            <polygon id="Path" fill="#FFFFFF" fill-rule="nonzero" points="47.8283977 17.3249127 47.8283977 3.09473239 53.1575555 3.09473239 53.1575555 5.13460114 50.68872 5.13460114 50.68872 8.39000811 53.0693828 8.39000811 53.0693828 10.4298769 50.68872 10.4298769 50.68872 15.2850439 53.1575555 15.2850439 53.1575555 17.3249127"></polygon>
            <path d="M19.6166616,27.7023957 C18.1600486,27.6115796 16.76692,27.8945066 15.6488902,28.0516882 C16.8409851,27.1120912 19.2886592,26.6929401 19.8600182,26.7767703 C20.4313773,26.8606005 20.5442384,26.97936 20.4913348,27.1854426 C20.4384311,27.3915252 20.2938279,27.7443108 19.6166616,27.7023957 Z" id="Path" fill="#1D1D1B" fill-rule="nonzero"></path>
            <path d="M29.1252052,32.8404897 C28.4868349,31.4188689 26.0003649,25.8825812 25.8346002,25.5053452 C25.6441472,25.0512649 25.8346002,24.901069 26.0638492,24.6740289 C26.2930982,24.4469887 27.8978413,22.7040186 27.8978413,22.7040186 L20.2938279,22.6690894 C19.6060809,22.6690894 19.2357555,22.8577074 18.9959258,23.1231697 C18.7560961,23.3886321 18.3293402,23.772854 17.2959562,23.9265427 C16.2625722,24.0802315 14.4391608,24.2758353 14.202858,25.2573475 C13.9665552,26.2388597 13.2294314,29.574604 13.8501672,30.6399464 C14.5132259,30.0147126 17.1548799,28.6210352 20.8228641,29.1729175 C21.5282457,29.2777053 22.6744907,35.4951134 21.2390392,40.3782239 L7.8367893,31.7506968 C7.47217774,32.4440314 7.06340687,33.1136964 6.61295227,33.7556363 C6.15445424,34.3214903 5.77354819,35.3064954 7.26190331,36.364852 C8.75025844,37.4232086 11.9632715,40.0359172 11.9632715,40.0359172 L4.55676497,38.0309777 C4.30404811,38.4937469 4.0871098,38.9748199 3.90781393,39.4700632 C3.67856491,40.1511837 3.67856491,41.8522386 5.62541806,42.6136965 C7.57227121,43.3751544 11.4342353,44.7304096 11.4342353,44.7304096 L3.25886288,44.0877113 C3.25886288,44.0877113 3.1812709,44.807254 3.10367893,45.8656106 C3.02608696,46.9239671 3.48811189,48.1010832 4.747218,48.251279 C6.00632411,48.4014748 11.7375494,49.1978619 11.7375494,49.1978619 L3.67856491,50.9757612 C3.67856491,50.9757612 4.211128,52.6034647 4.479173,53.3230074 C4.747218,54.0425502 5.35737306,54.4966306 7.19136516,54.3045196 C9.02535725,54.1124087 12.9966555,53.7177081 12.9966555,53.7177081 L5.88993615,57.2735067 L7.38181818,59.6207529 C7.84031621,60.3402957 8.67972028,60.4904915 9.63551231,60.1481847 C10.5913043,59.805878 15.4408027,57.6507427 15.4408027,57.6507427 L9.93882639,62.684049 C9.93882639,62.684049 11.0498024,63.9345165 11.7728185,64.6540592 C12.4958346,65.3736019 13.7231985,65.181491 14.2945576,64.6540592 C14.8659167,64.1266274 17.9272727,61.929577 17.9272727,61.929577 L17.0102767,68.0212398 L11.0498024,68.436898 L11.0110064,71.7272342 L12.3865005,70.4418375 L14.9470356,70.6688777 L12.0408635,73.6972445 L14.5626026,76.1178421 L14.5626026,74.189747 L16.6787473,72.4083548 L16.9855883,76.8373849 L20.9568866,76.7221183 C20.9568866,76.7221183 19.6977805,75.702184 19.4297355,75.3982994 C19.1909191,75.0853385 19.1067509,74.6826586 19.2004865,74.3015207 C19.2639708,73.9976361 19.6977805,70.5955262 19.6977805,70.5955262 L21.1861356,70.5221748 L22.5616297,71.8075715 L22.4875646,68.3146456 L20.4031621,67.9059733 L22.3888112,60.0748333 C22.9989663,60.3752249 25.5630283,61.5104259 26.8961995,61.8212963 C27.3934935,61.9365628 26.9349954,62.4255725 26.4024324,62.9949194 C25.8698693,63.5642663 26.0179994,64.5842007 26.9349954,65.6041351 C26.1731833,66.7044067 22.1595622,73.7775818 21.3589541,80.4001694 L23.1894193,81.0079385 C23.1894193,80.5538581 26.1343874,72.9462654 27.2806324,71.8110645 C27.2806324,71.8110645 25.9439343,80.134707 25.9051383,81.3851745 L27.5839465,81.6506368 C27.5839465,81.6506368 29.0864092,72.2197368 29.1146245,71.1299439 C29.1146245,71.07755 29.1146245,71.0146773 29.1146245,70.9518047 L29.1252052,32.8404897 Z M23.0307084,24.0383163 C23.0631337,24.4399377 22.7768391,24.7981689 22.3747036,24.8591539 C21.7295365,24.8623945 21.122566,24.5566289 20.7452721,24.0383163 L23.0307084,24.0383163 Z M14.2134387,30.0112197 C14.0229857,29.5291959 14.661356,26.1480436 15.1022195,25.5507533 C15.3596838,25.2014607 18.0895105,24.5028755 19.2004865,25.0023639 C22.5651566,26.5043221 21.9197324,28.4952898 21.1614472,28.4603606 C16.0650654,28.1809265 14.6754637,29.6724059 14.2240195,30.0112197 L14.2134387,30.0112197 Z M21.4612344,29.1310024 C21.6340529,29.1100448 22.7979325,28.9284127 22.1242931,27.2972162 C22.5994987,27.4340417 22.9700269,27.8036399 23.1047735,28.2752355 C23.6055944,29.9204036 21.7292794,29.3475638 21.4612344,29.1310024 Z" id="Shape" fill="#1D1D1B" fill-rule="nonzero"></path>
            <path d="M29.1252052,70.9448188 C29.1252052,71.0076915 29.1252052,71.0705642 29.1252052,71.122958 C29.1534205,72.2267226 30.6523563,81.643651 30.6523563,81.643651 L32.3346914,81.3781886 C32.2958954,80.1277211 30.9591973,71.8040786 30.9591973,71.8040786 C32.1054424,72.9392795 35.0468836,80.5363935 35.0468836,81.0009526 L36.8808756,80.3931835 C36.0802676,73.7566242 32.0666464,66.6974209 31.3048343,65.5971492 C32.2183034,64.5772148 32.3629067,63.5537875 31.8373974,62.9879335 C31.3118881,62.4220795 30.8463363,61.9400557 31.3401034,61.8143104 C32.6697476,61.5104259 35.219702,60.3752249 35.8510185,60.0678474 L37.8366677,67.8989874 L35.7734266,68.3146456 L35.6958346,71.8075715 L37.0713287,70.5221748 L38.5632107,70.5955262 C38.5632107,70.5955262 38.9829127,74.001129 39.0605047,74.3050136 C39.1507136,74.6862047 39.0668564,75.087396 38.8312557,75.4017923 C38.5632107,75.7056769 37.3005777,76.7256113 37.3005777,76.7256113 L41.2754029,76.8408778 L41.5822438,72.4118477 L43.680754,74.19324 L43.680754,76.1213351 L46.2060201,73.7007374 L43.299848,70.6723706 L45.8603831,70.4453304 L47.2358772,71.7307272 L47.1970812,68.4403909 L41.2366069,68.0247327 L40.3196108,61.9330699 C40.3196108,61.9330699 43.37744,64.1266274 43.948799,64.6575521 C44.5201581,65.1884769 45.747522,65.3736019 46.4705382,64.6575521 C47.1935543,63.9415023 48.3045303,62.6875419 48.3045303,62.6875419 L42.802554,57.6542356 C42.802554,57.6542356 47.6555792,59.8128638 48.6113712,60.1516777 C49.5671633,60.4904915 50.4065673,60.3437886 50.8650654,59.6242458 L52.3569474,57.2769996 L45.250228,53.721201 C45.250228,53.721201 49.2215263,54.098437 51.0555184,54.287055 C52.8895105,54.475673 53.5031925,54.0215926 53.7712375,53.3055428 C54.0392825,52.589493 54.5718455,50.9582966 54.5718455,50.9582966 L46.5022803,49.1769044 C46.5022803,49.1769044 52.2335056,48.3805172 53.4961386,48.2303214 C54.7587717,48.0801256 55.2137428,46.9065025 55.1361508,45.844653 C55.0585588,44.7828035 54.9844938,44.0667537 54.9844938,44.0667537 L46.8091213,44.7094521 C46.8091213,44.7094521 50.6675585,43.347211 52.6179386,42.5927389 C54.5683186,41.8382669 54.5647917,40.1476908 54.3355427,39.4491056 C54.1562468,38.9538623 53.9393085,38.4727894 53.6865917,38.0100201 L46.2800851,40.0149596 C46.2800851,40.0149596 49.4895713,37.4057439 50.9814533,36.3438944 C52.4733354,35.2820449 52.0889024,34.3005328 51.6304044,33.7346788 C51.1799498,33.0927389 50.7711789,32.4230738 50.4065673,31.7297393 L37.0043174,40.3572663 C35.5688659,35.46717 36.7115841,29.2567477 37.4169656,29.1519599 C41.0849498,28.6000776 43.7301307,29.9937551 44.3896625,30.6189888 C45.020979,29.5536464 44.294436,26.2598172 44.0369717,25.2363899 C43.7795074,24.2129626 41.9737306,24.055781 40.9403466,23.9055852 C39.9069626,23.7553893 39.4731529,23.3641816 39.2439039,23.1022122 C39.0146549,22.8402427 38.630222,22.6481318 37.9424749,22.6481318 L30.3419884,22.6830611 C30.3419884,22.6830611 31.9467315,24.429524 32.1759805,24.6530713 C32.4052296,24.8766186 32.5956826,25.0303073 32.4052296,25.4843877 C32.235938,25.8790883 29.7529948,31.4223618 29.1146245,32.8195322 L29.1252052,70.9448188 Z M37.5051383,24.0383163 C37.1267275,24.5571813 36.51845,24.8629436 35.87218,24.8591539 C35.4718808,24.7950555 35.1872313,24.4388827 35.2161751,24.0383163 L37.5051383,24.0383163 Z M35.1421101,28.2752355 C35.2761954,27.8044932 35.6452134,27.4350727 36.1190635,27.2972162 C35.448951,28.9284127 36.6128306,29.1100448 36.7821222,29.1310024 C36.521131,29.3475638 34.6448161,29.9204036 35.1421101,28.2752355 L35.1421101,28.2752355 Z" id="Shape" fill="#FFD500" fill-rule="nonzero"></path>
            <g id="Group" transform="translate(15.913408, 37.945599)" fill-rule="nonzero">
                <path d="M4.13706294,21.0045126 C0.581447238,17.4908466 -0.486773746,12.2018907 1.43054348,7.60404363 C3.3478607,3.0061966 7.87310161,0.00500173954 12.8960106,0 C17.9189197,-0.00498924871 22.4502378,2.98719848 24.3768755,7.58122254 C26.3035131,12.1752466 25.2460202,17.4663166 21.6975372,20.987048 C16.8529623,25.793735 8.99137598,25.8015537 4.13706294,21.0045126 L4.13706294,21.0045126 Z" id="Path" fill="#FFFFFF"></path>
                <path d="M12.5099422,25.0353491 L10.5560353,22.1711498 L14.3897841,20.1312811 C15.849924,20.5399534 18.1565217,20.3688001 18.9747644,20.2884628 L19.754211,22.3842183 L20.061052,22.3842183 L19.4508969,19.9985499 C20.5160314,18.4365369 21.3011108,16.7042617 21.7716023,14.8779205 L23.8560049,13.3130897 L24.4873214,14.6369086 L26.5611432,12.8415447 L25.7605351,7.0048654 L23.584433,8.297248 C22.4840377,6.86864129 20.4102159,5.37716191 19.7612648,4.92308154 L17.8355731,2.61076457 L18.0648221,2.7365099 L18.8160535,1.46508486 L18.5444816,1.39173341 L17.6063241,2.48152631 L17.7438735,2.5618636 C17.2783217,2.30688001 14.9999392,1.16469323 12.8979021,1.72006845 C12.5240499,1.44063437 11.2684707,0.473093889 10.5630891,0.253039554 L10.2350867,0.560417037 C10.8029188,0.735063334 11.9985406,1.68164627 12.4394041,2.00648838 L12.1819398,3.93109057 C11.215567,4.28038317 8.67972028,5.24792365 6.9409547,6.90706348 C6.21441168,6.87213422 4.87418668,6.81275448 4.0771055,6.8162474 C3.9100219,5.82479073 3.95568741,4.80959672 4.211128,3.83678157 L3.71383399,3.67610698 C3.42693768,4.78035719 3.33035375,5.9246545 3.42815445,7.06075222 C3.07546367,7.69646474 2.13730617,9.59312353 1.82341137,11.1509685 L1.76345394,11.1789119 C1.1329662,11.4348435 0.539887008,11.7731656 0,12.1848746 L0.352690787,12.5760823 C0.726543022,12.2547331 1.38607479,12.1010444 1.86926117,11.9403698 C2.22195196,12.5830681 3.177744,14.2352221 3.91134083,15.0001729 C3.92693005,16.5787775 4.20210651,18.1443222 4.72605655,19.6352856 L3.3152934,20.6831634 L7.0326543,25.2588964 L12.5099422,25.0353491 Z M17.5922165,6.23292877 C18.1641477,5.83586654 18.7963462,5.53165627 19.4650046,5.33175388 C20.1351171,5.77186254 22.5933718,7.42750944 23.5315293,8.87358078 L23.7114016,12.8799668 L21.6657951,14.2771372 C20.6702647,13.2420178 19.4977337,12.3894216 18.2023715,11.7587376 L17.6204317,6.23991462 L17.5922165,6.23292877 Z M7.45941016,7.22142681 C9.14527212,5.67755354 11.5858924,4.77637865 12.4570386,4.45153654 L12.5064153,4.43407191 C13.4657343,4.74144939 15.7934935,5.60769502 17.0667072,6.40408214 L17.5005169,11.7377801 C16.6752204,12.2756906 14.6507753,13.6064954 13.3916692,14.5321208 L7.94259653,12.0067354 C7.82620857,10.9728293 7.52994831,8.22040363 7.45941016,7.22142681 L7.45941016,7.22142681 Z M4.3945267,14.947779 L7.77683186,12.5481389 L13.3528732,15.2237201 C13.6110335,16.6733675 13.7923299,18.1354143 13.896017,19.6038493 L9.94588021,21.8218573 C8.74673153,21.3957203 5.78765582,19.995057 5.16339313,19.4711181 C4.65398509,18.0164052 4.39410387,16.4874899 4.3945267,14.947779 L4.3945267,14.947779 Z" id="Shape" stroke="#1D1D1B" stroke-width="0.5" fill="#1D1D1B"></path>
            </g>
            <path d="M20.0504713,58.9501111 C16.4948556,55.4364451 15.4266346,50.1474892 17.3439518,45.5496422 C19.261269,40.9517952 23.7865099,37.9506003 28.809419,37.9455986 C33.832328,37.9406093 38.3636461,40.932797 40.2902838,45.5268211 C42.2169215,50.1208452 41.1594285,55.4119152 37.6109456,58.9326465 C32.7663706,63.7393336 24.9047843,63.7471523 20.0504713,58.9501111 L20.0504713,58.9501111 Z" id="Path" stroke="#1D1D1B" stroke-width="0.7"></path>
            <path d="M37.0889632,28.442896 C36.3165704,28.4848111 35.6605655,26.4519282 39.0851931,24.9255195 C40.2138036,24.4190453 42.9894801,25.1211234 43.2539982,25.4808948 C43.7019155,26.0886639 44.3508665,29.5326888 44.1604135,30.0216985 C43.6983886,29.6793917 42.2876254,28.159969 37.0889632,28.442896 Z" id="Path" fill="#1D1D1B" fill-rule="nonzero"></path>
            <path d="M38.6337489,27.7023957 C40.0903618,27.6115796 41.4834904,27.8945066 42.6015202,28.0516882 C41.4094254,27.1120912 38.9617513,26.6929401 38.3903922,26.7767703 C37.8190331,26.8606005 37.7026452,26.97936 37.7590757,27.1854426 C37.8155062,27.3915252 37.9565825,27.7443108 38.6337489,27.7023957 Z" id="Path" fill="#FFE600" fill-rule="nonzero"></path>
            <rect id="Rectangle" fill="#FFFFFF" fill-rule="nonzero" x="0.744177562" y="18.9700808" width="56.6245059" height="1.32731186"></rect>
            <polygon id="Path" fill="#1D1D1B" fill-rule="nonzero" points="16.7351779 94.944713 18.8089997 94.944713 18.8089997 95.5315245 17.4264518 95.5315245 17.4264518 96.5339943 18.5339009 96.5339943 18.5339009 97.1068341 17.4264518 97.1068341 17.4264518 98.2839502 18.8936455 98.2839502 18.8936455 98.8882264 16.7351779 98.8882264"></polygon>
            <path d="M19.3874126,98.5668772 L19.6448769,98.0499241 C19.9056104,98.2544288 20.2292917,98.3641599 20.5618729,98.3607946 C21.0203709,98.3607946 21.210824,98.151219 21.210824,97.8124052 C21.210824,97.4142116 20.9851019,97.302438 20.5689267,97.1522422 C19.909395,96.925202 19.5531773,96.6702184 19.5531773,95.9541686 C19.5531773,95.2381188 20.022256,94.8713615 20.7346914,94.8713615 C21.092609,94.8547154 21.4467409,94.950033 21.746914,95.1438098 L21.4894497,95.6677487 C21.2848845,95.5204705 21.0368801,95.4443299 20.7840681,95.4511872 C20.4313773,95.4511872 20.2479781,95.5978901 20.2479781,95.9157464 C20.2479781,96.2336027 20.3749468,96.3523621 20.7911219,96.499065 C21.4153846,96.7121335 21.9267863,96.9321878 21.9267863,97.7600113 C21.9267863,98.4236672 21.6058376,98.9476061 20.6183034,98.9476061 C20.1773628,98.9549426 19.7457599,98.8214428 19.3874126,98.5668772 L19.3874126,98.5668772 Z" id="Path" fill="#1D1D1B" fill-rule="nonzero"></path>
            <polygon id="Path" fill="#1D1D1B" fill-rule="nonzero" points="23.2599574 95.5350175 22.3605959 95.5350175 22.3605959 94.944713 24.8294314 94.944713 24.8294314 95.5350175 23.9300699 95.5350175 23.9300699 98.8882264 23.2599574 98.8882264"></polygon>
            <path d="M24.8788081,98.483047 C24.8636678,98.3132383 24.9465859,98.1495061 25.0930625,98.0599746 C25.2395391,97.9704431 25.4244926,97.9704431 25.5709692,98.0599746 C25.7174457,98.1495061 25.8003638,98.3132383 25.7852235,98.483047 C25.7644857,98.7156342 25.5677797,98.8940009 25.3320158,98.8940009 C25.0962519,98.8940009 24.8995459,98.7156342 24.8788081,98.483047 L24.8788081,98.483047 Z" id="Path" fill="#1D1D1B" fill-rule="nonzero"></path>
            <polygon id="Path" fill="#1D1D1B" fill-rule="nonzero" points="28.1799939 98.339837 28.8853755 98.339837 28.8853755 95.8039728 28.2223168 96.1323078 28.0212831 95.7585647 29.0793554 94.9237554 29.5731225 94.9237554 29.5731225 98.339837 30.1938583 98.339837 30.1938583 98.8882264 28.1976285 98.8882264"></polygon>
            <path d="M30.9239282,97.8403486 C30.9065487,97.3908613 31.1956838,96.985677 31.6293098,96.8518505 C31.2618784,96.6787583 31.0392534,96.3001984 31.0685315,95.8982818 C31.0685315,95.2451046 31.5305564,94.8713615 32.2641532,94.8713615 C32.9977501,94.8713615 33.4527212,95.2625692 33.4527212,95.8773242 C33.4630091,96.2894677 33.1947946,96.6579226 32.7967163,96.7784991 C33.2664064,96.9103026 33.5840731,97.3432465 33.5655822,97.8263769 C33.5655822,98.5249621 33.0894497,98.9336344 32.2465187,98.9336344 C31.3013074,98.9476061 30.9239282,98.4411318 30.9239282,97.8403486 Z M32.0349042,97.0893695 C31.7540777,97.2201792 31.5801891,97.5053642 31.5940407,97.8124052 C31.5940407,98.2769643 31.8232898,98.4411318 32.2465187,98.4411318 C32.6697476,98.4411318 32.8602007,98.2315563 32.8602007,97.8962354 C32.900828,97.5712882 32.6855917,97.26893 32.3629067,97.1976502 L32.0349042,97.0893695 Z M32.2041958,96.499065 L32.3276376,96.5584448 C32.6196848,96.4618584 32.8084374,96.1814574 32.7861356,95.8773242 C32.802016,95.7349489 32.7501782,95.5933508 32.6458542,95.4941374 C32.5415303,95.394924 32.3965713,95.3493659 32.2535725,95.3708499 C32.1130976,95.352847 31.9722351,95.4011842 31.8731211,95.5014025 C31.7740072,95.6016207 31.7281344,95.7420994 31.7492247,95.8808171 C31.7492247,96.1532654 31.8056552,96.3314046 32.2041958,96.499065 Z" id="Shape" fill="#1D1D1B" fill-rule="nonzero"></path>
            <path d="M35.2161751,97.491056 C34.5566434,97.491056 34.0805108,97.0125251 34.0805108,96.2231239 C34.0442654,95.8695982 34.1651284,95.5179478 34.4116284,95.2597387 C34.6581285,95.0015296 35.0058701,94.8623159 35.3643053,94.8783474 C36.1508057,94.8783474 36.7010033,95.4127651 36.7010033,96.502558 C36.7010033,98.0010232 35.9956218,98.7450164 34.5848586,99 L34.4473092,98.5005116 C35.2302828,98.2769643 35.7311037,98.0394454 35.9145029,97.2500441 C35.718575,97.4109517 35.4706448,97.4965192 35.2161751,97.491056 Z M35.988568,96.4222207 C35.988568,95.6747345 35.7875342,95.4057792 35.3572514,95.4057792 C34.9269687,95.4057792 34.7788386,95.6887062 34.7788386,96.2021663 C34.7788386,96.7156264 34.9587109,96.9671171 35.3431438,96.9671171 C35.5778304,96.9723458 35.8054124,96.8871988 35.9779872,96.7295981 C35.985041,96.6248104 35.988568,96.5235155 35.988568,96.4152348 L35.988568,96.4222207 Z" id="Shape" fill="#1D1D1B" fill-rule="nonzero"></path>
            <path d="M37.3887504,98.2769643 C38.7219216,97.0299898 38.9582244,96.5619377 38.9582244,96.0799139 C38.9582244,95.5978901 38.7854059,95.4511872 38.3939191,95.4511872 C38.1055035,95.4575725 37.8245945,95.5434523 37.5827303,95.699185 L37.3570082,95.2066824 C37.6925512,94.9899756 38.085041,94.8757926 38.4856187,94.8783474 C39.2615385,94.8783474 39.6777136,95.2870197 39.6777136,96.0345059 C39.6777136,96.6387821 39.356765,97.2675087 38.1540894,98.3153865 L39.7411979,98.3153865 L39.7411979,98.8882264 L37.3887504,98.8882264 L37.3887504,98.2769643 Z" id="Path" fill="#1D1D1B" fill-rule="nonzero"></path>
        </g>
    </g>
</svg>