<?xml version="1.0" encoding="UTF-8"?>
<svg width="103px" height="138px" viewBox="0 0 103 138" version="1.1" xmlns="http://www.w3.org/2000/svg" xmlns:xlink="http://www.w3.org/1999/xlink">
    <title>soccer-tema-wallabies-color</title>
    <g id="soccer-tema-wallabies-color" stroke="none" stroke-width="1" fill="none" fill-rule="evenodd">
        <rect id="Rectangle" fill="#FFFFFF" x="0" y="0" width="103.235294" height="138"></rect>
        <g id="wallabies-rugby-vector-logo" transform="translate(10.000000, 29.000000)" fill-rule="nonzero">
            <path d="M1.44614576,71.0787879 L4.74581245,71.0787879 L4.74581245,76.3160173 L4.76581043,76.3160173 L7.14557005,71.0787879 L9.86529532,71.0787879 L10.0052812,76.3160173 L10.0252792,76.3160173 L12.2650529,71.0787879 L15.5647196,71.0787879 L11.225158,79.6813853 L7.8854953,79.6813853 L7.74550944,74.9021645 L7.72551146,74.9021645 L5.52573367,79.6813853 L2.18607102,79.6813853 C2.18607102,79.6813853 1.44614576,71.0787879 1.44614576,71.0787879 Z M15.0247741,75.1012987 C15.4047358,74.1852814 15.9046853,73.647619 16.7046045,73.3090909 C17.5045237,72.9705628 18.6244105,72.8510823 20.2242489,72.8510823 C23.3239358,72.8510823 24.3638308,73.5281385 23.9638712,75.4995671 L23.2839399,78.6857143 C23.18395,79.1835498 23.2439439,79.4822511 23.3439338,79.7212121 L20.2442469,79.7212121 C20.2242489,79.5419913 20.2442469,79.3030303 20.2642449,79.0839827 C19.4643257,79.7012987 18.3644368,80 16.7645984,80 C14.7248044,80 13.5649216,79.4623377 13.9248852,77.769697 C14.164861,76.5748918 15.204756,75.778355 17.4445297,75.6987013 L20.0242691,75.5792208 C20.6242085,75.5393939 20.8841823,75.4 20.9641742,75.0415584 C21.0441661,74.6034632 20.5442166,74.404329 19.7043014,74.404329 C19.0243701,74.404329 18.2844449,74.5038961 18.0244711,75.1411255 L15.0447721,75.1411255 L15.0447721,75.1012987 L15.0247741,75.1012987 Z M20.7042004,76.6744589 C20.164255,76.774026 19.2843439,76.8536797 18.2244509,76.9333333 C17.6645075,76.9731602 17.3445398,77.152381 17.2645479,77.5705628 C17.164558,78.0285714 17.4645277,78.3073593 18.2244509,78.3073593 C19.2443479,78.3073593 20.4242287,78.0683983 20.6442065,76.9333333 L20.7042004,76.6744589 Z M26.4036247,70.8 L29.4233197,70.8 L27.5235116,79.6813853 L24.5038166,79.6813853 C24.5038166,79.6813853 26.4036247,70.8 26.4036247,70.8 Z M30.8631743,70.8 L33.9028672,70.8 L32.0030591,79.6813853 L28.9833641,79.6813853 C28.9633662,79.6813853 30.8631743,70.8 30.8631743,70.8 Z M34.4828086,75.1012987 C34.8627702,74.1852814 35.3627197,73.647619 36.1626389,73.3090909 C36.9625581,72.9705628 38.082445,72.8510823 39.6822834,72.8510823 C42.7819703,72.8510823 43.8218653,73.5281385 43.4219057,75.4995671 L42.7419743,78.6857143 C42.6419844,79.1835498 42.7019784,79.4822511 42.8019683,79.7212121 L39.7022814,79.7212121 C39.6822834,79.5419913 39.7022814,79.3030303 39.7222794,79.0839827 C38.9223602,79.7012987 37.8224713,80 36.2226329,80 C34.1828389,80 33.0229561,79.4623377 33.3829197,77.769697 C33.6228955,76.5748918 34.6627904,75.778355 36.9025642,75.6987013 L39.4823036,75.5792208 C40.082243,75.5393939 40.3422167,75.4 40.4222087,75.0415584 C40.5022006,74.6034632 40.0022511,74.404329 39.1623359,74.404329 C38.4824046,74.404329 37.7424794,74.5038961 37.4825056,75.1411255 L34.5028066,75.1411255 L34.5028066,75.1012987 L34.4828086,75.1012987 Z M40.1622349,76.6744589 C39.6222895,76.774026 38.7423783,76.8536797 37.6824854,76.9333333 C37.122542,76.9731602 36.8025743,77.152381 36.7225824,77.5705628 C36.6225925,78.0285714 36.9225622,78.3073593 37.6824854,78.3073593 C38.7023824,78.3073593 39.8822632,78.0683983 40.102241,76.9333333 L40.1622349,76.6744589 Z M45.8616592,70.8 L48.9013522,70.8 L48.2614168,73.8666667 L48.2814148,73.8666667 C48.9213501,73.2493506 49.8812532,72.9307359 51.10113,72.9307359 C53.060932,72.9307359 54.6207744,74.0060606 54.1008269,76.4354978 C53.5808795,78.8649351 51.5410855,79.9402597 49.6012815,79.9402597 C48.2614168,79.9402597 47.5014936,79.6017316 47.081536,78.9645022 L47.061538,78.9645022 L46.9215521,79.6614719 L44.0018471,79.6614719 L45.8616592,70.8 L45.8616592,70.8 Z M49.02134,77.9290043 C50.1812229,77.9290043 50.8011603,77.3116883 51.0011401,76.4354978 C51.1811219,75.5792208 50.7811623,74.9419913 49.6812734,74.9419913 C48.5213905,74.9419913 47.9014532,75.4995671 47.6814754,76.4354978 C47.4814956,77.3714286 47.8614572,77.9290043 49.02134,77.9290043 Z M55.8806472,73.1099567 L58.9003421,73.1099567 L57.4804856,79.7012987 L54.4607906,79.7012987 L55.8806472,73.1099567 Z M56.3605987,70.8 L59.3802936,70.8 L59.02033,72.4528139 L56.000635,72.4528139 L56.3605987,70.8 Z M68.6993523,77.7099567 C68.3193907,78.387013 67.6994533,78.9645022 66.8395402,79.3428571 C65.979627,79.7411255 64.8797381,79.9402597 63.4998775,79.9402597 C60.3201987,79.9402597 58.7403583,78.7852814 59.2603058,76.395671 C59.7402573,74.1255411 61.7400553,72.8510823 64.7397523,72.8510823 C67.6594573,72.8510823 69.6192594,73.8268398 68.8393382,77.1125541 L62.2000088,77.1125541 C62.1000189,77.5904762 62.4399846,78.3073593 63.7798492,78.3073593 C64.5597704,78.3073593 65.0597199,78.1480519 65.4796775,77.7298701 C65.4796775,77.7099567 68.6993523,77.7099567 68.6993523,77.7099567 Z M66.1596088,75.5593074 C66.2396008,74.8623377 65.6596593,74.404329 64.6197644,74.404329 C63.5598715,74.404329 62.8999381,74.7428571 62.5599725,75.5593074 L66.1596088,75.5593074 Z M71.999019,77.0727273 C70.2791927,76.8935065 69.9192291,76.1766234 70.1792028,75.0415584 C70.5191685,73.4883117 72.0990089,72.8311688 75.0587099,72.8311688 C77.1185019,72.8311688 79.2982817,73.2095238 78.958316,75.0614719 L75.5586594,75.0614719 C75.5986554,74.9021645 75.5586594,74.7428571 75.4186736,74.64329 C75.2786877,74.5437229 74.998716,74.4839827 74.5587604,74.4839827 C73.6388533,74.4839827 73.4388735,74.6831169 73.3788796,74.9419913 C73.3388836,75.1012987 73.4588715,75.3004329 74.0988069,75.3601732 L76.9185221,75.5991342 C78.5183604,75.7385281 78.978314,76.4753247 78.7383382,77.5904762 C78.3783746,79.2831169 76.7585382,79.9402597 73.5788594,79.9402597 C70.4391766,79.9402597 69.1993018,79.3030303 69.4792735,77.630303 L73.018916,77.630303 C72.998918,77.8891775 73.0989079,78.0683983 73.2788897,78.1679654 C73.4588715,78.2675325 73.7788392,78.2874459 74.0988069,78.2874459 C74.8587301,78.2874459 75.1387018,78.0883117 75.2186938,77.7896104 C75.2586897,77.6103896 75.1986958,77.4112554 74.8787281,77.3714286 L71.999019,77.0727273 L71.999019,77.0727273 Z" id="Shape" fill="#006351"></path>
            <path d="M81.4319209,71.1639999 C80.992219,71.1639999 80.5125442,71.3239999 80.2327339,71.6439999 C79.9129507,71.9639999 79.7130862,72.4439999 79.7130862,72.8839999 C79.7130862,73.3239999 79.8729778,73.8039999 80.192761,74.1239999 C80.5125442,74.4439999 80.992219,74.6439999 81.4319209,74.6439999 C81.8716229,74.6439999 82.3512977,74.4839999 82.6710809,74.1639999 C82.9908641,73.8439999 83.1507557,73.4039999 83.1507557,72.9239999 C83.1507557,72.4839999 82.9908641,72.0039999 82.6710809,71.6839999 C82.3512977,71.3239999 81.9115958,71.1639999 81.4319209,71.1639999 M81.4319209,71.4039999 C81.83165,71.4039999 82.231379,71.5639999 82.5111893,71.8439999 C82.7909996,72.1239999 82.9109183,72.5239999 82.9109183,72.9239999 C82.9109183,73.2839999 82.7510267,73.6839999 82.4712164,73.9639999 C82.1914061,74.2439999 81.791677,74.4039999 81.391948,74.4039999 C81.0321919,74.4039999 80.6324629,74.2439999 80.3526526,73.9639999 C80.0728423,73.6839999 79.9529236,73.2839999 79.9529236,72.9239999 C79.9529236,72.5639999 80.1128152,72.1239999 80.3926255,71.8439999 C80.6724358,71.5639999 81.0321919,71.4039999 81.4319209,71.4039999 Z M80.7523816,71.9239999 L80.7523816,73.9239999 L81.1521106,73.9239999 L81.1521106,73.0839999 L81.4319209,73.0839999 L81.791677,73.9239999 L82.231379,73.9239999 L81.791677,73.0439999 C82.0714874,72.9639999 82.231379,72.8039999 82.231379,72.5239999 C82.231379,72.2039999 81.9515687,72.0039999 81.391948,72.0039999 L80.7523816,71.9239999 Z M81.1521106,72.1639999 L81.391948,72.1639999 C81.7117312,72.1639999 81.83165,72.2439999 81.83165,72.4839999 C81.83165,72.6839999 81.6717583,72.7639999 81.391948,72.7639999 L81.1121377,72.7639999 L81.1121377,72.1239999 L81.1521106,72.1239999 L81.1521106,72.1639999 Z" id="Shape" fill="#006351"></path>
            <path d="M51.2923535,32.1239999 L51.6521096,32.1239999 C53.6507546,32.2439999 55.6493997,32.6439999 57.4881532,33.4439999 C59.4468253,34.2839999 61.2456059,35.5239999 62.5647116,37.1639999 C63.9237902,38.9239999 64.6832754,40.9639999 64.8031941,43.1639999 C64.9630857,45.2839999 64.5233838,47.4039999 63.604007,49.3239999 C62.7246032,51.1639999 61.4054975,52.7239999 59.8865272,54.0439999 C59.0870692,54.7639999 58.2476383,55.3639999 57.3282616,55.9239999 C56.8885596,56.2039999 56.3689119,56.5239999 55.8892371,56.7239999 C55.6893726,56.8039999 55.4895081,56.9639999 55.2096978,56.9639999 C55.0098333,56.9639999 54.8499417,56.8439999 54.7699959,56.6839999 C54.4901856,56.2039999 55.0098333,55.8439999 55.2896436,55.6039999 C55.6893726,55.2439999 56.0891016,54.8439999 56.4488577,54.4439999 C57.2083429,53.6439999 57.8479093,52.8439999 58.4475028,51.9239999 C59.6466898,50.1239999 60.5260936,48.1239999 60.5660665,45.9239999 C60.6060394,43.8839999 59.8465543,41.7639999 58.2476383,40.4839999 C56.6087493,39.1639999 54.4102398,38.6839999 52.3316489,38.5239999 C52.0118657,38.4839999 51.6920825,38.4839999 51.3722993,38.4839999 C51.3722993,38.4839999 51.3323264,38.4839999 51.3722993,38.4839999 C50.0531935,38.4839999 48.8140336,37.6439999 48.3343588,36.4439999 C47.854684,35.2039999 48.2144401,33.7639999 49.2537355,32.8839999 C49.853329,32.4039999 50.5728413,32.1239999 51.2923535,32.1239999 Z M45.3763641,62.2039999 C46.2957408,61.7639999 47.2950634,61.3639999 48.254413,61.0039999 C49.6134916,60.5239999 51.0125432,60.0839999 52.4515676,59.7639999 C55.2896436,59.0439999 58.1277196,58.6039999 61.0457414,58.4439999 C62.5247387,58.3639999 64.0836818,58.3239999 65.5626792,58.3639999 C67.7611888,58.4039999 69.9596983,58.6839999 72.118235,59.0839999 C73.5172865,59.3239999 74.956311,59.6839999 76.3153896,60.0839999 C76.9949289,60.2839999 77.6744682,60.4839999 78.3540076,60.7239999 C78.593845,60.8039999 78.7937095,60.9639999 78.8736553,61.2039999 C78.9136282,61.4439999 78.8336824,61.7239999 78.6338179,61.8839999 C78.3540076,62.0839999 77.9942514,61.9639999 77.7144411,61.9239999 C77.354685,61.8439999 76.954956,61.8039999 76.6351728,61.7239999 C75.2361213,61.4839999 73.7571239,61.3239999 72.3180995,61.2439999 C69.4000777,61.0439999 66.4820559,61.1239999 63.5640341,61.4439999 C60.6859852,61.7639999 57.8479093,62.3639999 55.0498062,63.2039999 C53.6907276,63.6039999 52.3316489,64.0839999 50.9725703,64.6039999 C49.8133561,65.0439999 48.6941149,65.5639999 47.6148466,66.1239999 C47.2550905,66.3239999 46.8153886,66.4839999 46.3756866,66.4839999 C45.8960118,66.4839999 45.3763641,66.3239999 45.016608,66.0039999 C44.21715,65.3239999 43.9773126,64.2039999 44.4170145,63.3239999 C44.5369332,62.7639999 44.8966893,62.4039999 45.3763641,62.2039999 L45.3763641,62.2039999 Z M63.604007,8.00399991 C66.9617307,9.80399991 70.479346,8.16399991 70.479346,8.16399991 C70.3194544,12.0039999 67.8011617,16.6039999 66.8817849,18.5639999 C66.4820559,19.4439999 67.0816494,19.8839999 68.080972,19.2039999 C68.8004842,18.7239999 69.9596983,17.2439999 70.5193189,16.2439999 C71.4786686,14.5239999 72.1582079,13.4039999 72.9576659,11.4839999 C73.717151,9.68399991 74.2367987,8.12399991 74.7164735,6.32399991 C75.0762297,4.92399991 75.5958774,3.04399991 75.6358503,1.60399991 C75.6758232,0.883999909 75.5958774,-0.236000091 74.5565819,0.0439999089 C65.9624082,4.64399991 69.280159,5.72399991 60.1263646,0.163999909 C59.4068524,-0.236000091 58.8472318,0.283999909 58.767286,0.843999909 C58.4075299,3.68399991 62.5647116,12.8039999 63.6839528,13.0439999 C65.0830044,13.3239999 63.5640341,11.1239999 63.604007,8.00399991 L63.604007,8.00399991 Z M83.7903221,25.5239999 C82.7909996,22.9639999 79.0735198,22.6039999 76.7550915,22.8439999 C75.3160671,22.9639999 73.9170155,23.3639999 72.5979098,23.9639999 C69.0003487,23.7639999 65.2828689,24.6439999 62.0850368,26.0839999 C63.0443864,23.9639999 63.9637631,21.6039999 63.8438444,19.2439999 C63.8038715,18.0439999 63.3641696,16.7239999 62.3248742,16.0039999 C61.8052265,15.6439999 61.1256872,15.5239999 60.4461478,15.4039999 C59.7666085,15.3239999 59.0870692,15.2839999 58.367557,15.2839999 C55.529481,15.3639999 52.8512966,16.4039999 50.4129497,17.8439999 C49.0938439,18.6839999 47.8147111,19.6039999 46.6954699,20.7239999 L46.6554969,20.7639999 C43.5775836,23.4839999 41.5789385,27.1639999 40.0199954,30.8839999 C38.2212148,35.1639999 36.7821904,39.5639999 34.8235182,43.7639999 C33.8641686,45.8039999 32.8248732,47.8039999 31.5457403,49.5639999 C30.2666075,51.3239999 28.7076643,52.8839999 26.9888296,54.1639999 C23.5511601,56.7239999 19.3939784,58.2039999 15.1968238,58.9639999 C10.5999401,59.8039999 5.84316489,59.9239999 1.16633546,59.2839999 C0.806579346,59.2439999 0.326904532,59.1639999 0.0870671257,59.5639999 C-0.11279738,59.9239999 0.0470942245,60.4039999 0.406850335,60.5639999 C1.00644385,60.8039999 1.60603737,60.9239999 2.20563089,61.0439999 C2.8451973,61.2039999 3.48476372,61.3239999 4.12433014,61.4439999 C5.40346298,61.6839999 6.68259581,61.8839999 8.04167445,62.0839999 C10.5599672,62.3639999 13.1582058,62.4439999 15.7164715,62.2439999 C20.4732467,61.9239999 25.2300219,60.6439999 29.3072579,58.1639999 C31.4657945,56.8839999 33.4644396,55.2439999 35.1433014,53.4039999 C36.5823259,52.0439999 38.1812419,50.7639999 39.9400496,49.8439999 C41.6988572,48.9239999 43.6975023,48.3239999 45.6561744,48.9639999 C46.1358492,49.1639999 48.4143046,50.3639999 47.9746027,53.4039999 C47.6947924,54.7239999 46.7754157,55.8039999 45.7361202,56.6439999 C44.5769061,57.6039999 43.2178275,58.3639999 41.778803,58.9639999 C41.3391011,59.1639999 40.8194534,59.2839999 40.3797515,59.5639999 C40.0599683,59.7239999 39.9800225,60.2039999 40.2198599,60.4839999 C40.4596973,60.7639999 40.8594263,60.6839999 41.1792095,60.6439999 C43.817421,60.2039999 46.4956053,59.4439999 48.6141691,57.7239999 C50.6128142,56.1639999 51.7720283,53.8839999 51.6920825,51.3239999 C51.6920825,51.0839999 51.6521096,50.8439999 51.6521096,50.5639999 C51.492218,49.3639999 51.1724348,48.2039999 50.4928955,47.2039999 C49.853329,46.2839999 49.053871,45.6039999 48.1344943,45.0039999 C46.0559034,43.7639999 43.5775836,43.4839999 41.2191824,43.7639999 C41.4989927,43.1239999 41.8187759,42.4839999 42.0586133,41.8439999 C44.1372042,36.8839999 45.3363912,31.3239999 48.5741962,26.8839999 C49.5335458,25.6039999 50.6128142,24.3639999 51.8519741,23.3239999 C53.091134,22.2839999 54.6101043,21.3239999 56.2489932,21.0839999 C56.9685054,20.9639999 57.8479093,20.8839999 58.4874757,21.2839999 C58.9671505,21.6039999 59.1270421,22.2039999 59.167015,22.7639999 C59.2469608,24.3639999 58.5674215,26.0839999 57.967828,27.5239999 C57.7279906,28.2439999 56.9285325,29.6039999 57.6080719,30.3239999 C58.4075299,31.1639999 60.0464188,30.0839999 60.8458769,29.6839999 C62.0450639,29.1639999 63.2442509,28.5639999 64.4834109,28.0839999 C65.7625437,27.6039999 67.0416765,27.1639999 68.4007552,26.8439999 L68.3208094,26.9239999 C67.9610533,27.2839999 67.6012971,27.7239999 67.3614597,28.1639999 C66.0823269,30.0039999 65.4827334,31.9639999 66.042354,33.4039999 C67.0816494,36.0439999 72.3180995,37.1639999 77.1148476,35.0039999 C81.9115958,32.9639999 84.8296175,28.1639999 83.7903221,25.5239999 L83.7903221,25.5239999 Z M81.1121377,25.8839999 C80.6724358,26.0039999 80.192761,26.1239999 79.7530591,26.2839999 C79.4332759,26.3639999 79.1134927,26.4839999 78.7937095,26.6039999 C76.6351728,27.4439999 74.5565819,28.4439999 72.5579369,29.6439999 L71.718506,30.1639999 C71.3987228,30.3639999 70.9989937,30.6039999 70.6792105,30.8439999 C70.3594273,31.0839999 69.9996712,31.2839999 69.679888,31.5639999 C69.5599693,31.6439999 69.4400506,31.7639999 69.280159,31.8439999 C68.9603758,32.0839999 68.6006197,32.4839999 68.2408636,32.5639999 C67.1615952,32.8439999 68.080972,30.8439999 68.2408636,30.4839999 L68.480701,30.0039999 C68.7605113,29.5239999 69.0802945,29.0439999 69.4400506,28.6439999 C71.5186415,26.1239999 74.7964194,24.5239999 78.0741972,24.5639999 C78.4339534,24.5639999 78.8336824,24.6039999 79.2334114,24.6439999 C79.8729778,24.7639999 80.6724358,24.8839999 81.2320564,25.2839999 C81.5518396,25.5239999 81.4319209,25.8039999 81.1121377,25.8839999 L81.1121377,25.8839999 Z" id="Shape" fill="#FFCB05"></path>
        </g>
    </g>
</svg>