<?xml version="1.0" encoding="UTF-8"?>
<svg width="103px" height="138px" viewBox="0 0 103 138" version="1.1" xmlns="http://www.w3.org/2000/svg" xmlns:xlink="http://www.w3.org/1999/xlink">
    <title>soccer-tema-monaco-color</title>
    <g id="soccer-tema-monaco-color" stroke="none" stroke-width="1" fill="none" fill-rule="evenodd">
        <rect id="Rectangle" fill="#FFFFFF" x="0" y="0" width="103.235294" height="138"></rect>
        <g id="as-monaco-fc" transform="translate(21.000000, 16.000000)" fill-rule="nonzero">
            <path d="M13.9861359,26.8703343 C14.0910353,26.9181472 14.2053537,26.9418564 14.3206605,26.9397134 C14.4435769,26.9310978 14.5560793,26.8677428 14.6269949,26.7672033 C14.7514216,26.6061167 14.7361114,26.3777858 14.5912872,26.2346719 C14.5330273,26.1634177 12.939337,24.5883248 11.3851131,22.8594728 C9.63919527,20.9224836 8.79536632,19.2461348 9.12989094,18.2073235 C9.40239694,17.367274 9.98499599,16.8141164 10.8946023,16.5366 C10.5556772,15.9323766 10.2858641,15.2920732 10.0902397,14.6277375 C9.5184988,14.5881395 8.94439075,14.5981778 8.37439152,14.6577393 C7.57435846,14.7311397 6.79980066,14.9768011 6.10413457,15.3777817 C5.23747437,15.8705221 4.60565119,16.6901062 4.35069937,17.6522908 C3.33960811,21.8075358 10.8062727,25.3177428 13.9861359,26.8703343 Z" id="Path" fill="#D9A900"></path>
            <path d="M21.8624992,26.0077835 C21.9669446,26.0730702 22.0869786,26.1093229 22.2101793,26.1127897 C22.3241552,26.1096974 22.4341434,26.0702699 22.5240311,26.000283 C22.6136934,25.9387389 22.6722186,25.8414409 22.6844743,25.7335463 C22.69673,25.6256516 22.661513,25.5177535 22.587929,25.4377499 C20.0489248,22.4675747 15.4275987,16.4653458 17.0983425,12.7451265 C18.5022183,10.1856006 22.4394602,11.3369185 23.3584632,11.5806828 C23.8658882,11.7138157 24.249276,11.8188219 24.5236613,11.4250486 C24.6570953,11.2037856 24.3639164,10.9000177 24.3206914,10.8625155 C21.6426151,8.21110915 19.2126132,7.60919866 17.6358371,7.60919866 C17.5268347,7.60919866 17.4253497,7.60919866 17.3219853,7.60919866 C14.9446053,7.74420662 13.0878058,8.82802052 12.0447655,10.7537591 C10.0902397,14.3520962 13.4561587,18.0985671 15.6305687,20.5924642 C18.201522,23.5363878 21.5166985,25.7583938 21.8624992,26.0077835 Z" id="Path" fill="#D9A900"></path>
            <path d="M14.6890135,21.1943747 L14.568735,21.0593667 C14.365765,20.826853 14.1515189,20.5830886 13.9353934,20.3280736 C13.5125393,21.064992 13.6328178,22.0925526 14.3112638,23.2832478 C15.557274,25.4415001 16.0778545,26.0284097 16.0778545,26.0284097 C16.0778545,26.0284097 17.3934007,25.8859013 19.7162795,25.728392 C17.7166492,24.2151778 16.0045597,22.7019636 14.6890135,21.1943747 Z" id="Path" fill="#CE1417"></path>
            <path d="M23.6967466,25.1827348 C23.7249368,25.2146117 23.9260275,25.4264992 23.9899254,25.5033787 C25.510321,25.439625 27.0570275,25.3908721 28.737168,25.3758712 C28.5172839,24.7702105 26.9818535,20.4218291 26.8333847,15.7246772 C24.3432436,15.9328144 20.9434962,16.8084911 18.784121,17.6804175 C19.8929386,20.1705643 21.8004806,22.9626039 23.6967466,25.1827348 Z" id="Path" fill="#CE1417"></path>
            <path d="M29.8328301,5.34218999 C28.6771524,5.67392138 27.9426588,6.80401554 28.1105437,7.99210524 C28.2784287,9.18019493 29.2974464,10.0636234 30.5,10.0636234 C31.7025536,10.0636234 32.7215713,9.18019493 32.8894563,7.99210524 C33.0573412,6.80401554 32.3228476,5.67392138 31.1671699,5.34218999 L31.1671699,3.32644613 L33.3171483,3.32644613 L33.3171483,2.06262162 L31.1671699,2.06262162 L31.1671699,0 L29.8328301,0 L29.8328301,2.06262162 L27.6828517,2.06262162 L27.6828517,3.32644613 L29.8328301,3.32644613 L29.8328301,5.34218999 Z" id="Path" fill="#D9A900"></path>
            <path d="M59.167632,34.7739253 C58.831228,34.6032903 50.1467435,31.4756059 30.5,31.4756059 C10.8532565,31.4756059 2.1668926,34.6032903 1.83236798,34.7739253 C1.57489679,35.0364408 0,44.1269768 0,53.2531399 C0,62.379303 1.82485058,74.1943747 8.24847495,83.545551 C14.6720993,92.8967274 28.12262,104.687423 30.5,106 C32.8755006,104.687423 46.3279007,92.8911021 52.751525,83.545551 C59.1751494,74.2 61,62.3774279 61,53.2531399 C61,44.1288519 59.4232239,35.0364408 59.167632,34.7739253 Z" id="Path" fill="#D9A900"></path>
            <path d="M46.4068334,26.2271714 C46.2636148,26.3710132 46.2483875,26.5981082 46.3711258,26.7597028 C46.4431763,26.8599237 46.5560606,26.9231062 46.6793395,26.932213 C46.7940387,26.9343307 46.9077402,26.9106162 47.0119847,26.8628339 C50.1937273,25.3177428 57.6603919,21.8000354 56.6436626,17.6504157 C56.3896081,16.6888834 55.7592208,15.8694053 54.8939861,15.3759066 C54.1977548,14.9746685 53.4225284,14.7289985 52.6218498,14.6558641 C52.0524794,14.596298 51.478995,14.5862596 50.907881,14.6258624 C50.7122566,15.290198 50.4424435,15.9305015 50.1035184,16.5347249 C51.0131247,16.8122413 51.5938444,17.3653989 51.8682297,18.2054484 C52.2083924,19.2442597 51.3645634,20.9206085 49.6130076,22.8575977 C48.0587837,24.5808243 46.4650934,26.1559172 46.4068334,26.2271714 Z" id="Path" fill="#D9A900"></path>
            <path d="M37.6396574,11.5825579 C38.5605398,11.3387936 42.4959024,10.1874757 43.8997782,12.7470016 C45.5724013,16.4672209 40.9510752,22.4694498 38.412071,25.439625 C38.3382948,25.5193769 38.3027644,25.6271069 38.314658,25.7349861 C38.3265515,25.8428654 38.3847026,25.9403136 38.4740896,26.0021581 C38.5642931,26.0715713 38.6740877,26.1109295 38.7879413,26.1146648 C38.911784,26.111531 39.0325098,26.0752655 39.1375008,26.0096586 C39.4833015,25.7602689 42.798478,23.5382629 45.3675519,20.5943393 C47.5400826,18.1004422 50.907881,14.3539713 48.9533551,10.7556342 C47.9121942,8.82802052 46.0610327,7.74420662 43.6780147,7.61294888 C43.5746503,7.61294888 43.471286,7.61294888 43.3622836,7.61294888 C41.7873868,7.61294888 39.3555056,8.21485937 36.6793086,10.8662657 C36.6360836,10.9093932 36.3429047,11.2131612 36.4763387,11.4287989 C36.7488447,11.820697 37.1341118,11.7156908 37.6396574,11.5825579 Z" id="Path" fill="#D9A900"></path>
            <path d="M47.0646066,20.3280736 C46.8484811,20.5830886 46.634235,20.826853 46.431265,21.0593667 L46.3109865,21.1943747 C44.9954403,22.6944631 43.2833508,24.2151778 41.2799618,25.728392 C43.6065993,25.8859013 44.9183868,26.0284097 44.9183868,26.0284097 C44.9183868,26.0284097 45.4389673,25.4415001 46.6849775,23.2832478 C47.376579,22.0925526 47.4874607,21.0574916 47.0646066,20.3280736 Z" id="Path" fill="#CE1417"></path>
            <path d="M37.0138333,25.507129 C37.0758519,25.4302494 37.2788219,25.2183619 37.3070121,25.1864851 C39.1995194,22.9626039 41.1070614,20.1705643 42.2196377,17.6860428 C40.0583831,16.8141164 36.6605151,15.9384398 34.170374,15.7303025 C34.0219052,20.4180789 32.4789574,24.7758358 32.2665907,25.3814966 C33.9467312,25.3946223 35.4934377,25.4433752 37.0138333,25.507129 Z" id="Path" fill="#CE1417"></path>
            <path d="M30.5,10.7237573 C29.2915768,10.7237573 28.2823649,12.6926234 28.3387455,16.7034849 C28.3744531,19.1711304 29.4569598,24.3576862 30.2030624,25.6308863 C30.3101855,25.8183973 30.4097911,25.8859013 30.5,25.8859013 C30.5902089,25.8859013 30.6879352,25.8146471 30.7969376,25.6308863 C31.5486783,24.3576862 32.6255469,19.1711304 32.6612545,16.7034849 C32.7176351,12.6926234 31.7084232,10.7237573 30.5,10.7237573 Z" id="Path" fill="#D9A900"></path>
            <path d="M30.5,27.1497258 C22.8096925,27.1497258 16.8577854,27.7403856 16.8577854,27.7403856 L16.8577854,30.2455333 C16.8577854,30.2455333 22.7457946,29.6586237 30.5,29.6586237 C38.2542054,29.6586237 44.1403352,30.2455333 44.1403352,30.2455333 L44.1403352,27.7403856 C44.1403352,27.7403856 38.1903075,27.1497258 30.5,27.1497258 Z" id="Path" fill="#D9A900"></path>
            <path d="M56.2095323,37.2003184 C55.9125947,37.0653105 47.9103149,34.8226782 30.5075174,34.8226782 C13.1047199,34.8226782 5.10244008,37.0728109 4.8055025,37.2003184 C4.57622158,37.430957 3.41478218,46.4577393 3.41478218,54.4775871 C3.41478218,62.497435 5.03478341,73.3468247 10.7442541,81.5748098 C16.3973443,89.7165399 28.2485366,100.325915 30.5112761,101.638493 C32.7664982,100.325915 44.6233286,89.7146648 50.2782981,81.5748098 C55.9840101,73.3468247 57.60777,62.497435 57.60777,54.4775871 C57.60777,46.4577393 56.4312958,37.430957 56.2095323,37.2003184 Z" id="Path" fill="#FFFFFF"></path>
            <path d="M48.9947008,79.643446 C43.6704973,87.2226428 32.4751987,97.6032549 30.5,98.6758181 C28.5248013,97.6032549 17.3276234,87.2226428 12.0034198,79.643446 C6.67921622,72.0642491 5.16069998,62.039908 5.16069998,54.6369715 C5.16069998,47.234035 6.22253374,38.8972935 6.43865919,38.685406 C6.72620001,38.5597736 14.2078994,36.6227844 30.4943619,36.6227844 C46.7808245,36.6227844 54.2662826,38.5653989 54.5500647,38.685406 C54.7680695,38.8972935 55.8299033,47.2377852 55.8299033,54.6369715 C55.8299033,62.0361578 54.3301805,72.0604989 48.9947008,79.643446 Z" id="Path" fill="#D9A900"></path>
            <path d="M54.1309693,51.3836547 L6.86903075,51.3836547 C6.82956436,52.4655935 6.80701214,53.5606581 6.80701214,54.6388466 C6.80701214,59.0734831 7.44599174,70.3016451 13.3584324,78.7208916 C18.1770904,85.580046 27.476123,94.3068105 30.5,96.6900761 C33.523877,94.3068105 42.8229096,85.580046 47.6415676,78.7208916 C53.5540083,70.3016451 54.1911085,59.0734831 54.1911085,54.6388466 C54.1911085,53.5606581 54.1685563,52.4655935 54.1309693,51.3836547 Z" id="Path" fill="#FFFFFF"></path>
            <path d="M10.0883603,70.9860605 C11.0066176,73.6056021 12.2706435,76.0913746 13.8470639,78.3777463 C15.4754089,80.6387911 17.2382771,82.8003032 19.126163,84.850628 L19.126163,52.7749867 L10.086481,52.7749867 L10.0883603,70.9860605 Z" id="Path" fill="#CE1417"></path>
            <path d="M25.2716434,52.7749867 L25.2716434,91.1735008 C27.444174,93.2698744 29.3423193,94.9724748 30.5,95.9231558 C31.6576807,94.9724748 33.555826,93.2698744 35.7283566,91.1735008 L35.7283566,52.7749867 L25.2716434,52.7749867 Z" id="Path" fill="#CE1417"></path>
            <path d="M54.1309693,51.3836547 C53.9543102,46.5083672 53.4450059,41.8712188 53.1593444,40.0036087 C50.8608972,39.5048293 43.6704973,38.2241288 30.5,38.2241288 C17.3295027,38.2241288 10.1391028,39.5048293 7.84065562,39.9961083 C7.55499415,41.8712188 7.04568981,46.5008668 6.86903075,51.3761543 L54.1309693,51.3836547 Z" id="Path" fill="#CE1417"></path>
            <path d="M41.8719576,84.850628 C43.7592924,82.7998276 45.522133,80.6383492 47.1510568,78.3777463 C48.7274772,76.0913746 49.991503,73.6056021 50.9097603,70.9860605 L50.9097603,52.7749867 L41.8700783,52.7749867 L41.8719576,84.850628 Z" id="Path" fill="#CE1417"></path>
            <path d="M13.3960195,44.4438705 C13.3847542,44.2926466 13.4410194,44.1441813 13.5497494,44.038228 C13.6584794,43.9322747 13.8085672,43.8796567 13.959825,43.8944631 C14.1604361,43.8986629 14.3558155,43.9590938 14.5236305,44.0688484 L14.7698256,43.1706704 C14.4731823,42.9902613 14.132453,42.8948908 13.7850453,42.895029 C12.8284552,42.895029 12.3135128,43.6619494 12.3135128,44.5488767 C12.3135128,45.3664249 12.7100561,45.7864497 13.350915,46.2177251 C13.6647668,46.4408633 14.0086882,46.6039979 14.0086882,47.0390235 C14.0113236,47.207927 13.9424804,47.370115 13.8190658,47.4857558 C13.6956512,47.6013966 13.5290987,47.659777 13.3603118,47.6465593 C13.1768897,47.646615 12.9955672,47.6076195 12.8284552,47.5321776 L12.5164828,48.4097293 C12.800014,48.5952459 13.1321393,48.6930931 13.4711935,48.6910289 C14.5161131,48.6910289 15.0911948,47.9409517 15.0911948,46.9415178 C15.0911948,45.4208031 13.3997782,45.3664249 13.3997782,44.4438705" id="Path" fill="#FFFFFF"></path>
            <path d="M15.6625177,48.6009906 L17.2656048,48.6009906 L17.45354,43.7463294 L17.4742128,43.7463294 L17.4742128,43.8738369 L18.4364409,48.6009906 L19.2953047,48.6009906 L20.1767207,43.7463294 L20.1955142,43.7463294 L20.5168834,48.6009906 L22.0579518,48.6009906 C21.9262597,48.3937264 21.8445585,48.158804 21.8192741,47.9147002 C21.770411,47.5096763 21.2554686,42.1749867 21.1878119,41.5055723 C20.578902,41.5411994 19.9737507,41.5787016 19.3761168,41.619954 L18.8517777,45.8408279 L18.8329842,45.8408279 L18.1940046,41.7062091 C17.5944913,41.7530869 16.9987368,41.8018397 16.4104997,41.8543428 C16.3296876,42.8031488 15.9218683,47.5959314 15.8880399,47.9447019 C15.8652986,48.1780423 15.7880589,48.4028164 15.6625177,48.6009906" id="Path" fill="#FFFFFF"></path>
            <path d="M27.4328979,48.6009906 L28.9363793,48.6009906 L28.9363793,45.3026711 L28.9269826,45.0082788 L28.864964,44.282611 L28.8837575,44.265735 L30.5300696,48.6009906 L31.7948734,48.6009906 L31.7948734,42.0062268 C31.8004278,41.7437085 31.8694116,41.4864069 31.995964,41.2561826 C31.4960564,41.2561826 30.9923902,41.2561826 30.4924826,41.2561826 L30.462413,41.2561826 L30.462413,44.6538829 C30.457536,45.0198685 30.4934645,45.3852602 30.569536,45.7433221 L30.5526218,45.7601981 L28.9551728,41.2599328 C28.5022491,41.2599328 28.053084,41.2693083 27.6039189,41.2768088 L27.6039189,47.9390766 C27.6184465,48.1731299 27.5593103,48.4058628 27.4347773,48.6047408" id="Path" fill="#FFFFFF"></path>
            <path d="M37.0814899,45.0364054 C37.0814899,46.8740138 38.1733933,48.6741199 40.142954,48.6741199 C40.4694025,48.6981476 40.7958253,48.627148 41.0826299,48.4697329 L40.7687781,47.2434106 C40.6004532,47.3048414 40.4235374,47.3396386 40.244439,47.3465417 C39.0529299,47.3465417 38.5323495,46.0658411 38.5323495,45.0270299 C38.5323495,43.9507164 39.0529299,42.8444012 40.2538357,42.8444012 C40.4279961,42.847274 40.6010631,42.8724822 40.7687781,42.9194056 L41.1108201,41.7662126 C40.8705431,41.6513804 40.6137156,41.5748224 40.3496827,41.5393243 L40.0395896,41.5205731 C38.1978249,41.5430745 37.0758519,43.3113037 37.0758519,45.0364054" id="Path" fill="#FFFFFF"></path>
            <polygon id="Path" fill="#FFFFFF" points="49.1563251 44.0257209 49.4964878 42.9850345 46.8240495 42.9850345 46.8240495 48.6009906 47.9366258 48.6009906 47.9366258 46.2683531 48.8763017 46.2683531 48.8763017 45.2239165 47.9366258 45.2239165 47.9366258 44.0257209"></polygon>
            <path d="M51.9528005,47.6840616 C51.0018485,47.7140633 50.4775094,46.7633823 50.4493191,45.825827 C50.4173701,44.8188926 50.9586235,43.9844684 51.8212459,43.9844684 C51.9622636,43.9780368 52.1035509,43.988106 52.2422207,44.0144702 L52.4752603,43.1706704 C52.2405235,43.0613272 51.9820924,43.0123361 51.7235196,43.028162 C50.2425904,43.0731647 49.3818473,44.503874 49.4250724,45.8652043 C49.4701768,47.3071643 50.3835418,48.6947462 51.9546799,48.6459933 C52.3437057,48.6347426 52.5560725,48.5578631 52.6970238,48.4397311 L52.4019656,47.5959314 C52.2622799,47.6549414 52.1120061,47.6849284 51.9603179,47.6840616" id="Path" fill="#FFFFFF"></path>
            <path d="M24.6007148,47.3540421 C23.7136607,47.3540421 23.6497628,45.5408102 23.6497628,44.9707766 C23.6497628,44.333239 23.7136607,42.5875111 24.6007148,42.5875111 C25.4877688,42.5875111 25.5516668,44.333239 25.5516668,44.9707766 C25.5516668,45.5333097 25.4877688,47.3540421 24.6007148,47.3540421 M24.6007148,41.2768088 C23.4092057,41.2768088 22.2252141,42.2837431 22.2252141,44.9707766 C22.2252141,47.65781 23.4092057,48.6647444 24.6007148,48.6647444 C25.7922238,48.6647444 26.9743361,47.65781 26.9743361,44.9707766 C26.9743361,42.2837431 25.7922238,41.2768088 24.6007148,41.2768088" id="Shape" fill="#FFFFFF"></path>
            <path d="M34.5631585,44.1701044 L34.7078686,43.2625509 L34.7247828,43.2625509 L34.8751309,44.1701044 L35.2190523,46.0883425 L34.2793764,46.0883425 L34.5631585,44.1701044 Z M33.8208146,48.6009906 L34.0613716,47.2096586 L35.4145049,47.2096586 L35.6644587,48.6009906 L37.1679401,48.6009906 C37.0187146,48.4033524 36.9112975,48.1775201 36.852209,47.9372015 C36.7638795,47.5621794 35.5780085,42.1524854 35.3957114,41.3180612 C34.9221147,41.3030603 34.4447594,41.2918097 33.967404,41.2824341 L32.4037834,48.5953653 L33.8208146,48.6009906 Z" id="Shape" fill="#FFFFFF"></path>
            <path d="M43.5633742,47.4815496 C42.6706821,47.4815496 42.6067842,45.7826995 42.6067842,45.2464178 C42.6067842,44.6520078 42.6706821,43.0150363 43.5633742,43.0150363 C44.4560663,43.0150363 44.5218436,44.6520078 44.5218436,45.2464178 C44.5218436,45.7826995 44.4579457,47.4815496 43.5633742,47.4815496 M43.5633742,41.788714 C42.3624684,41.788714 41.16908,42.7262692 41.16908,45.2464178 C41.16908,47.7665664 42.3624684,48.709747 43.5633742,48.709747 C44.76428,48.709747 45.9576684,47.7721918 45.9576684,45.2464178 C45.9576684,42.7206439 44.7661593,41.788714 43.5633742,41.788714" id="Shape" fill="#FFFFFF"></path>
            <path d="M9.76887054,46.6415001 L10.0037895,45.1676632 L10.1221887,44.5001238 L10.1353441,44.5001238 L10.2631401,45.1676632 L10.5394048,46.6415001 L9.76887054,46.6415001 Z M10.7461335,43.07879 L9.60160823,43.07879 L8.31989032,48.6009906 L9.4042763,48.6009906 L9.60160823,47.4965505 L10.7123051,47.4965505 L10.9190338,48.5934902 L12.1875963,48.5934902 C12.0820969,48.4640278 12.0098456,48.3108403 11.9771089,48.1472139 C11.9150903,47.860322 10.7555302,43.0712896 10.7555302,43.0712896" id="Shape" fill="#FFFFFF"></path>
        </g>
    </g>
</svg>