<?xml version="1.0" encoding="UTF-8"?>
<svg width="103px" height="138px" viewBox="0 0 103 138" version="1.1" xmlns="http://www.w3.org/2000/svg" xmlns:xlink="http://www.w3.org/1999/xlink">
    <g id="soccer-monza-color" stroke="none" stroke-width="1" fill="none" fill-rule="evenodd">
        <rect id="Rectangle" fill="#FFFFFF" x="0" y="0" width="103.235294" height="138"></rect>
        <g id="Group" transform="translate(52.500000, 66.000000) scale(-1, 1) rotate(-180.000000) translate(-52.500000, -66.000000) translate(16.000000, 15.000000)" fill-rule="nonzero">
            <path d="M27.8804516,93.4028914 L27.8804516,84.6749675 C24.7115197,85.0674521 21.8984711,85.6620079 19.6375651,86.4081171 L19.6375651,95.1347457 C21.6564181,94.3925224 24.5100269,93.7901946 27.8804516,93.4028914" id="Path" fill="#FFFFFF"></path>
            <path d="M43.5314166,93.2059885 L43.5314166,84.4586347 C41.375313,84.2591541 39.0856223,84.1516418 36.7082691,84.1516418 C34.0625642,84.1516418 31.5255869,84.2850607 29.1613177,84.5298778 L29.1613177,93.2681643 C31.4941854,93.0466631 34.0403215,92.9236069 36.7082691,92.9236069 C39.103809,92.9236069 41.3974249,93.0246425 43.5314166,93.2059885" id="Path" fill="#FFFFFF"></path>
            <path d="M53.5001281,95.0350183 L53.5001281,86.3187524 C51.1136162,85.5583946 48.1474854,84.9625434 44.8123873,84.5881935 L44.8123873,93.3251846 C48.342567,93.6917626 51.3530524,94.2863184 53.5001281,95.0350183" id="Path" fill="#FFFFFF"></path>
            <path d="M69.0739893,89.9275119 C69.0622138,84.093352 68.6187988,70.2100205 65.1985243,54.6932797 C62.8316383,43.9563012 59.4757367,34.4641335 55.2246315,26.4771376 C50.1938539,17.0264204 43.8783636,9.65341021 36.4401398,4.54722501 C35.5738517,5.09773965 34.0678894,6.14177447 32.1798758,7.80497635 C29.3956119,10.2583286 25.1851978,14.5976793 20.9420738,21.3372738 C16.162508,28.9304899 12.3172669,37.95893 9.51324621,48.1713003 C6.14282149,60.4419478 4.27574226,74.4625842 3.95780235,89.8731081 C5.49516612,88.8109387 7.98634961,87.2591351 11.348924,85.7060361 C16.7133422,83.2280726 25.431176,80.2734281 36.493784,80.2734281 C47.554691,80.2734281 56.1694233,83.1620108 61.4474875,85.5855705 C65.0480589,87.2384098 67.6190544,88.891249 69.0739893,89.9275119" id="Path" fill="#ED1639"></path>
            <path d="M22.4092815,95.6530714 C25.5211674,94.9063145 30.803811,94.46111 36.5682055,94.46111 C42.3791788,94.46111 47.6993733,94.9133092 50.7998762,95.6706879 L50.8384738,95.6800142 L50.8433149,95.6806619 C53.1464821,96.2498293 53.1730425,96.7359661 53.1730425,96.7565618 C53.1730425,96.8724937 52.9320362,97.1559116 52.0288513,97.4820753 C49.3873333,98.4355667 43.3188679,99.0517545 36.5682055,99.0517545 C29.8181973,99.0517545 23.7502552,98.4355667 21.1091297,97.4820753 C20.2056831,97.1557821 19.9646768,96.8724937 19.9646768,96.7565618 C19.9646768,96.5810448 20.4596425,96.1285865 22.3326095,95.6719832 L22.4092815,95.6530714 Z M19.9646768,86.6426364 C22.0778651,85.9659567 24.6890284,85.4155716 27.553366,85.0430351 L27.553366,93.1151341 C24.5254791,93.477308 21.919811,94.0134445 19.9646768,94.6756165 L19.9646768,86.6426364 Z M45.1394991,84.951844 C48.1618908,85.3090956 50.9265288,85.8609056 53.1730425,86.5558494 L53.1730425,94.5833891 C51.0945267,93.9125384 48.335384,93.3801584 45.1394991,93.0341761 L45.1394991,84.951844 Z M29.4884818,84.8223111 C31.8121908,84.5921313 34.2393938,84.4754222 36.7082037,84.4754222 C38.9195216,84.4754222 41.1033631,84.5692039 43.2045142,84.7541769 L43.2045142,92.8539959 C41.0990454,92.6852146 38.9153347,92.5997229 36.7082037,92.5997229 C34.2268332,92.5997229 31.7998919,92.7050331 29.4884818,92.9126743 L29.4884818,84.8223111 Z M4.29874384,89.2490965 C4.65344964,74.1151252 6.51346354,60.3268708 9.82893568,48.2563516 C12.6245826,38.0740329 16.4570015,29.0748672 21.219689,21.508594 C25.441617,14.802419 29.62848,10.4866433 32.3973049,8.04689191 C34.1164047,6.53252329 35.5148169,5.53369543 36.4335717,4.9374557 C43.7477597,10.0071126 49.9716624,17.3035689 54.9353193,26.6281211 C59.1734714,34.5908943 62.5190366,44.0566374 64.8789881,54.7622689 C68.2100302,69.8743491 68.7025099,83.5368271 68.743986,89.3005211 C67.1813703,88.2290253 64.7867463,86.761418 61.5851045,85.2917382 C56.2776014,82.8547071 47.6161594,79.9496737 36.4937578,79.9496737 C25.3714871,79.9496737 16.6056351,82.9203802 11.2106005,85.4125924 C8.16976037,86.8171171 5.83924775,88.2212533 4.29874384,89.2490965 M35.5876945,0.903673018 C35.2284093,1.08877547 26.6873396,5.59198522 18.0508879,19.1973392 C13.0453624,27.0844653 9.02518882,36.4430847 6.10210424,47.0132248 C2.46790715,60.1575714 0.524941034,75.2358435 0.327111757,91.8291319 L0.327111757,91.851023 C0.327111757,92.5703189 0.630659325,93.5372817 1.48268595,94.0941435 C1.7212063,94.2495829 2.11961248,94.5091667 2.72356747,94.5091667 C2.89235039,94.5091667 3.06885283,94.4884415 3.24836458,94.4476386 C3.52365083,94.3849447 3.8016847,94.2681061 4.07474667,94.0999724 L4.25124911,93.9914239 C4.49212458,93.8431088 4.72802814,93.6814518 4.95267951,93.510857 C5.68838984,92.9519227 8.44203731,90.9664431 12.9846528,88.8820004 C14.1844508,88.3316153 15.4305659,87.8164631 16.6951293,87.3482018 L16.6951293,97.7862185 C16.6951293,98.9451489 18.7113656,99.9005833 22.687577,100.626097 C26.3985769,101.303295 31.3282156,101.67622 36.5682055,101.67622 C41.808457,101.67622 46.7382266,101.303295 50.4496189,100.626097 C54.4264846,99.9005833 56.4428517,98.9451489 56.4428517,97.7862185 L56.4428517,87.3759219 C63.8326649,90.1417074 67.9361832,93.5354683 68.1104613,93.6813223 C68.4140089,93.9489371 69.2439236,94.5841663 70.2549202,94.5841663 C70.5826731,94.5841663 70.9021831,94.5168092 71.2044223,94.3841675 C71.7483219,94.1447908 72.660273,93.4977742 72.660273,91.851023 C72.660273,91.8376811 72.6628898,91.7089254 72.6628898,91.7089254 C72.7245152,87.3287719 72.6216754,71.6625501 68.7131079,53.9324814 C66.2771387,42.8830697 62.8100236,33.087277 58.4083222,24.8172517 C52.9015506,14.4734055 45.8933961,6.46270508 37.5785478,1.00781743 L36.6129526,0.375308498 L35.5876945,0.903673018 Z" id="Shape" fill="#FFFFFF"></path>
            <path d="M36.4937447,79.6257897 C47.6756783,79.6257897 56.3854001,82.5472738 61.7227345,84.9980354 C64.6087915,86.3228975 66.8445764,87.6468528 68.4109865,88.684411 C68.3385014,82.6147604 67.7700039,69.3973573 64.5593342,54.8313876 C62.205663,44.1539942 58.8703033,34.7159713 54.6460202,26.7791046 C49.7480446,17.5782563 43.6200473,10.3639238 36.4280633,5.32949984 C35.5210841,5.93001416 34.2077175,6.88544851 32.614747,8.28880747 C29.8618846,10.7144397 25.6985726,15.00677 21.4971865,21.6797846 C16.7513772,29.2193741 12.9317806,38.1895243 10.1445074,48.3411438 C6.88150188,60.2211202 5.03117011,73.7719409 4.64113765,88.6357066 C6.17745469,87.6430963 8.34036196,86.3809282 11.0722901,85.1191486 C16.4974178,82.6130765 25.3118112,79.6257897 36.4937447,79.6257897 M29.8155674,85.1160399 L29.8155674,92.5589978 C32.0292404,92.3711751 34.3441831,92.2759685 36.7081906,92.2759685 C38.8013604,92.2759685 40.8730726,92.3525224 42.8772716,92.5036872 L42.8772716,85.0512734 C40.8777828,84.8840465 38.8054165,84.799332 36.7081906,84.799332 C34.3543886,84.799332 32.0387916,84.905808 29.8155674,85.1160399 M45.4667155,92.7444888 C48.3481931,93.0693572 50.868423,93.5472039 52.8459307,94.1420188 L52.8459307,86.7949152 C50.7527609,86.1664218 48.2248115,85.6604664 45.4667155,85.3177225 L45.4667155,92.7444888 Z M20.2917624,86.8793706 L20.2917624,94.2278991 C22.1477203,93.643965 24.5143446,93.1659887 27.2262543,92.8288147 L27.2262543,85.4133178 C24.6275208,85.7681082 22.2527844,86.2700481 20.2917624,86.8793706 M20.3624157,96.7566395 C20.4750685,96.8454991 20.7185608,96.9964048 21.221246,97.1777508 C23.8294,98.1194547 29.85338,98.7280001 36.5681924,98.7280001 C43.2837898,98.7280001 49.308424,98.1194547 51.9167088,97.1777508 C52.4190015,96.9964048 52.6626246,96.8456286 52.7751466,96.756769 C52.5991675,96.6188166 52.1047251,96.3298287 50.8056201,96.0052194 L50.8054892,96.0052194 L50.8001248,96.0039241 L50.7988164,96.0039241 L50.7216211,95.9850123 C47.6451927,95.2335922 42.3543062,94.7850199 36.5681924,94.7850199 C30.8543019,94.7850199 25.6221624,95.2227114 22.5287248,95.9576809 L22.4108385,95.9864371 C21.0525939,96.3175231 20.5417967,96.6158373 20.3624157,96.7566395 M36.5681924,102 C31.3089691,102 26.3582653,101.625132 22.6282937,100.944566 C20.784373,100.60804 19.3269522,100.212188 18.296853,99.7678898 C17.7253462,99.5213888 17.2951461,99.2656909 16.9815239,98.9860295 C16.5744823,98.623208 16.3680176,98.2194541 16.3680176,97.7862962 L16.3680176,87.817318 C15.2628166,88.2376522 14.1744939,88.6930897 13.122152,89.1758586 C8.61041462,91.2460527 5.88084162,93.2139159 5.1518041,93.7677984 C4.91838648,93.9449993 4.67358584,94.1127444 4.42394413,94.2663703 L4.24731085,94.3750484 C3.94363244,94.5619643 3.6322345,94.6925334 3.32149076,94.7632584 C3.11816623,94.8095016 2.91706596,94.8329471 2.72355439,94.8329471 C2.02160064,94.8329471 1.55424205,94.5284153 1.30329195,94.3648153 C0.342145212,93.7367105 0,92.6544635 0,91.8511007 L0,91.8329661 L0,91.8290801 L0,91.8253237 C0.198221796,75.2041857 2.1451131,60.0985821 5.7866372,46.9276813 C8.71809551,36.3268419 12.751353,26.9390776 17.7738877,19.0250087 C26.457049,5.34620958 35.0742673,0.803103709 35.4368235,0.616446863 L36.2909435,0.176164685 L36.6326962,0 L36.954038,0.210490891 L37.7588316,0.737560084 C46.1203895,6.22314701 53.1649174,14.2737436 58.697726,24.6660351 C63.1132964,32.9623555 66.5904861,42.7857387 69.0327357,53.8635181 C72.9488918,71.6283017 73.0517316,87.3248341 72.9899754,91.7125006 L72.9884053,91.7912565 C72.9877511,91.8191061 72.9873586,91.8393132 72.9873586,91.8511007 C72.9873586,93.7491457 71.8336162,94.4617059 71.3376037,94.6799688 C70.9925801,94.8312631 70.6285847,94.9079466 70.255038,94.9079466 C69.1391081,94.9079466 68.2368392,94.2247903 67.8936472,93.9238855 C67.6572203,93.7269955 63.7626527,90.5350469 56.7699373,87.846722 L56.7699373,97.7862962 C56.7699373,98.9359003 55.3180117,99.5620621 54.8408401,99.7678898 C53.8106101,100.212188 52.3530585,100.60804 50.5088761,100.944566 C46.778512,101.625132 41.8276774,102 36.5681924,102 M36.4937447,80.273454 C25.4311368,80.273454 16.7133029,83.2280985 11.3488847,85.706062 C7.98644119,87.259161 5.4952577,88.8109646 3.95789394,89.873134 C4.27570301,74.4626101 6.14278224,60.4419737 9.5133378,48.1713263 C12.3172276,37.9589559 16.1624688,28.9305158 20.9420346,21.3372997 C25.1851586,14.5975757 29.3955727,10.258225 32.1798366,7.80500225 C34.0678501,6.14180038 35.5738124,5.09776556 36.4401005,4.54725092 C43.8783244,9.65343611 50.1938147,17.0263168 55.2247231,26.477034 C59.4756975,34.4641594 62.831599,43.9563271 65.198485,54.6933056 C68.6187596,70.2100464 69.0621745,84.093378 69.0739501,89.9275378 C67.6190152,88.8912749 65.0480196,87.2384357 61.4474483,85.5855965 C56.1693841,83.1620367 47.5547826,80.273454 36.4937447,80.273454 M36.7081906,84.1516677 C39.0856746,84.1516677 41.3753653,84.25918 43.5314689,84.4586606 L43.5314689,93.2060144 C41.3974772,93.0246684 39.1038613,92.9236328 36.7081906,92.9236328 C34.0403738,92.9236328 31.4942378,93.046689 29.16137,93.2681902 L29.16137,84.5299037 C31.5256392,84.2850866 34.0626165,84.1516677 36.7081906,84.1516677 M44.8123873,84.5881935 C48.1474854,84.9625434 51.1136162,85.5583946 53.5001281,86.3187524 L53.5001281,95.0350183 C51.3530524,94.2863184 48.342567,93.6917626 44.8123873,93.3251846 L44.8123873,84.5881935 Z M27.8804516,84.6749805 L27.8804516,93.4029043 C24.5100269,93.7902076 21.6564181,94.3925354 19.6375651,95.1347586 L19.6375651,86.4081301 C21.8984711,85.6620208 24.7115197,85.067465 27.8804516,84.6749805 M36.5681924,94.1373556 C42.5895556,94.1373556 47.8767785,94.6231038 50.878236,95.3562598 C50.8807219,95.3562598 50.8833387,95.3575551 50.8860863,95.3575551 C52.5412056,95.762993 53.5001281,96.2422645 53.5001281,96.75651 C53.5001281,97.1217926 53.0161529,97.470236 52.1408368,97.7862962 C49.5540097,98.7202281 43.5551509,99.3756643 36.5681924,99.3756643 C29.5813647,99.3756643 23.5836835,98.7202281 20.997118,97.7862962 C20.121802,97.470236 19.6375651,97.1217926 19.6375651,96.75651 C19.6375651,96.2422645 20.5966184,95.7616976 22.2543545,95.3575551 C22.2557937,95.3562598 22.2569713,95.3562598 22.2582796,95.3562598 C25.2611763,94.6231038 30.5483992,94.1373556 36.5681924,94.1373556 M36.5681924,101.352336 C47.3638878,101.352336 56.1157399,99.7551956 56.1157399,97.7862962 L56.1157399,86.9094222 C63.8011195,89.7099226 68.1019437,93.2500556 68.3216231,93.4339922 C68.5982178,93.6776435 69.3548624,94.2602823 70.255038,94.2602823 C70.5177636,94.2602823 70.7930499,94.2105417 71.0718688,94.0881331 C71.5428909,93.8808806 72.3331613,93.314822 72.3331613,91.8511007 C72.3331613,91.8277848 72.3344697,91.777267 72.3357781,91.7034333 C72.3974034,87.3355853 72.2965262,71.7061509 68.3935849,54.0016001 C65.9638959,42.9809447 62.5071171,33.2127425 58.1188922,24.9681057 C52.637896,14.6728343 45.6667691,6.70254811 37.3978455,1.27771209 L36.5930519,0.750642902 L35.7386701,1.19092508 C35.3814784,1.37486174 26.9096228,5.85035145 18.327862,19.3695661 C13.3402614,27.2284541 9.33277933,36.5574104 6.41754512,47.0987942 C2.79080588,60.2165866 0.851634104,75.2670091 0.654197346,91.8329661 L0.654197346,91.8511007 C0.654197346,92.487107 0.919801468,93.3381379 1.66296965,93.8238861 C1.90018161,93.9785483 2.2289812,94.1852828 2.72355439,94.1852828 C2.86067415,94.1852828 3.01074702,94.1693502 3.1750814,94.1320448 C3.43335851,94.0732369 3.6769816,93.9635225 3.90202549,93.8250519 L4.07852793,93.7163738 C4.31142219,93.5731105 4.53607355,93.4192255 4.75352875,93.2539415 C5.59888256,92.6118472 8.33499754,90.6586212 12.8471275,88.5881681 C14.0613177,88.0311768 15.4559356,87.4482789 17.0222149,86.8835157 L17.0222149,97.7862962 C17.0222149,99.7551956 25.7727586,101.352336 36.5681924,101.352336" id="Shape" fill="#EC173A"></path>
            <path d="M53.5001281,96.75651 C53.5001281,96.2422645 52.5412056,95.762993 50.8860863,95.3575551 C50.8833387,95.3575551 50.8807219,95.3562598 50.878236,95.3562598 C47.8767785,94.6231038 42.5895556,94.1373556 36.5681924,94.1373556 C30.5483992,94.1373556 25.2611763,94.6231038 22.2582796,95.3562598 C22.2569713,95.3562598 22.2557937,95.3562598 22.2543545,95.3575551 C20.5966184,95.7616976 19.6375651,96.2422645 19.6375651,96.75651 C19.6375651,97.1217926 20.121802,97.470236 20.997118,97.7862962 C23.5836835,98.7202281 29.5813647,99.3756643 36.5681924,99.3756643 C43.5551509,99.3756643 49.5540097,98.7202281 52.1408368,97.7862962 C53.0161529,97.470236 53.5001281,97.1217926 53.5001281,96.75651" id="Path" fill="#ED1639"></path>
            <path d="M27.8804516,93.4028914 L27.8804516,84.6749675 C24.7115197,85.0674521 21.8984711,85.6620079 19.6375651,86.4081171 L19.6375651,95.1347457 C21.6564181,94.3925224 24.5100269,93.7901946 27.8804516,93.4028914" id="Path" fill="#ED1639"></path>
            <path d="M43.5314166,93.2059885 L43.5314166,84.4586347 C41.375313,84.2591541 39.0856223,84.1516418 36.7082691,84.1516418 C34.0625642,84.1516418 31.5255869,84.2850607 29.1613177,84.5298778 L29.1613177,93.2681643 C31.4941854,93.0466631 34.0403215,92.9236069 36.7082691,92.9236069 C39.103809,92.9236069 41.3974249,93.0246425 43.5314166,93.2059885" id="Path" fill="#ED1639"></path>
            <path d="M53.5001281,95.0350183 L53.5001281,86.3187524 C51.1136162,85.5583946 48.1474854,84.9625434 44.8123873,84.5881935 L44.8123873,93.3251846 C48.342567,93.6917626 51.3530524,94.2863184 53.5001281,95.0350183" id="Path" fill="#ED1639"></path>
            <g transform="translate(12.389490, 6.883609)" fill="#FFFFFF">
                <path d="M26.4756675,82.8249922 C26.0558036,82.8249922 25.6853971,82.6183873 25.4606149,82.3027157 C25.2859442,82.6551746 24.9860602,82.9352247 24.616962,83.0845761 C24.9856676,83.2975281 25.2341318,83.6922147 25.2341318,84.1454502 C25.2341318,84.8244614 24.6784566,85.3741988 23.9927269,85.3741988 C23.3072589,85.3741988 22.7514529,84.8244614 22.7514529,84.1454502 C22.7514529,83.6888468 23.0034497,83.2915696 23.3766038,83.0796538 C22.9759734,82.9135927 22.6579026,82.5928693 22.4961851,82.1932605 C22.2842251,82.5700716 21.8782302,82.8249922 21.4115259,82.8249922 C20.7260579,82.8249922 20.170121,82.2752548 20.170121,81.5962435 C20.170121,80.9173618 20.7260579,80.3676244 21.4115259,80.3676244 C21.8782302,80.3676244 22.2842251,80.6226746 22.4961851,80.9993561 C22.661697,80.5905505 22.9914124,80.2651639 23.4051268,80.1026002 C23.0160103,79.8953476 22.7514529,79.4886144 22.7514529,79.0200941 C22.7514529,78.3413419 23.3072589,77.7916045 23.9927269,77.7916045 C24.6784566,77.7916045 25.2341318,78.3413419 25.2341318,79.0200941 C25.2341318,79.4851171 24.9734996,79.8892596 24.5889624,80.0980665 C24.9706211,80.2443091 25.2816265,80.5286337 25.4606149,80.8899009 C25.6853971,80.5743588 26.0558036,80.3676244 26.4756675,80.3676244 C27.1612663,80.3676244 27.7168107,80.9173618 27.7168107,81.5962435 C27.7168107,82.2752548 27.1612663,82.8249922 26.4756675,82.8249922" id="Path"></path>
                <path d="M13.7968781,83.9745963 C13.3771451,83.9745963 13.0067385,83.7679914 12.7820872,83.4525789 C12.6074165,83.8049083 12.3074016,84.0849583 11.9383034,84.2341802 C12.3068782,84.4471322 12.5553424,84.8418188 12.5553424,85.2950543 C12.5553424,85.9740655 11.9996671,86.5239325 11.3141992,86.5239325 C10.6284695,86.5239325 10.0726634,85.9740655 10.0726634,85.2950543 C10.0726634,84.8385805 10.3246603,84.4413032 10.6978144,84.2293874 C10.297184,84.0633263 9.97911323,83.742603 9.81739564,83.3429941 C9.6054357,83.7196757 9.19944083,83.9745963 8.73286728,83.9745963 C8.04726846,83.9745963 7.4914624,83.4248589 7.4914624,82.7458476 C7.4914624,82.0670955 8.04726846,81.5172285 8.73286728,81.5172285 C9.19944083,81.5172285 9.6054357,81.7722787 9.81739564,82.1489602 C9.98290757,81.740025 10.312623,81.414768 10.7263374,81.2522043 C10.3372209,81.0449517 10.0726634,80.6382185 10.0726634,80.1698277 C10.0726634,79.4910756 10.6284695,78.9412086 11.3141992,78.9412086 C11.9996671,78.9412086 12.5553424,79.4910756 12.5553424,80.1698277 C12.5553424,80.6347212 12.2947101,81.0388637 11.9103038,81.2476706 C12.2919625,81.3939132 12.6029679,81.6781083 12.7820872,82.0393754 C13.0067385,81.7238334 13.3771451,81.5172285 13.7968781,81.5172285 C14.4824769,81.5172285 15.0381521,82.0670955 15.0381521,82.7458476 C15.0381521,83.4248589 14.4824769,83.9745963 13.7968781,83.9745963" id="Path"></path>
                <path d="M39.2985635,83.9067341 C38.8788305,83.9067341 38.5085548,83.7001292 38.2839034,83.3844576 C38.1091019,83.7369165 37.8092178,84.0170961 37.4399889,84.1663179 C37.8085636,84.3792699 38.0570278,84.7739565 38.0570278,85.227192 C38.0570278,85.9062032 37.5014834,86.4559407 36.8158846,86.4559407 C36.1301549,86.4559407 35.5743489,85.9062032 35.5743489,85.227192 C35.5743489,84.7705887 35.8264765,84.3733114 36.1996307,84.1615252 C35.7991311,83.9954641 35.4809295,83.6746112 35.3193427,83.2748728 C35.1073828,83.6516839 34.7012571,83.9067341 34.2345527,83.9067341 C33.5490847,83.9067341 32.9932787,83.3569966 32.9932787,82.6779854 C32.9932787,81.9992332 33.5490847,81.4493662 34.2345527,81.4493662 C34.7013879,81.4493662 35.1073828,81.7044164 35.3193427,82.0812275 C35.4848547,81.6722923 35.8143084,81.3469058 36.2280228,81.184342 C35.8390371,80.9769599 35.5743489,80.5703563 35.5743489,80.1019655 C35.5743489,79.4230838 36.1301549,78.8733463 36.8158846,78.8733463 C37.5014834,78.8733463 38.0570278,79.4230838 38.0570278,80.1019655 C38.0570278,80.5668589 37.7965264,80.9708719 37.4122509,81.1796788 C37.7939096,81.326051 38.1047842,81.6103756 38.2837726,81.9716427 C38.5085548,81.6561007 38.8788305,81.4493662 39.2985635,81.4493662 C39.9841623,81.4493662 40.5397067,81.9992332 40.5397067,82.6779854 C40.5397067,83.3569966 39.9841623,83.9067341 39.2985635,83.9067341" id="Path"></path>
                <path d="M19.0127674,33.8020004 C19.0127674,33.2277812 18.5429228,32.7622402 17.9625189,32.7622402 C17.3825076,32.7622402 16.9120088,33.2277812 16.9120088,33.8020004 C16.9120088,34.3764786 17.3825076,34.8417606 17.9625189,34.8417606 C18.5429228,34.8417606 19.0127674,34.3764786 19.0127674,33.8020004" id="Path"></path>
                <path d="M16.9123098,31.5336599 C16.9123098,30.9593112 16.4423344,30.4938996 15.8620614,30.4938996 C15.2819192,30.4938996 14.8115513,30.9593112 14.8115513,31.5336599 C14.8115513,32.1081381 15.2819192,32.5732906 15.8620614,32.5732906 C16.4423344,32.5732906 16.9123098,32.1081381 16.9123098,31.5336599" id="Path"></path>
                <path d="M21.2477672,31.5336599 C21.2477672,30.9593112 20.7777918,30.4938996 20.1975188,30.4938996 C19.6173765,30.4938996 19.1470087,30.9593112 19.1470087,31.5336599 C19.1470087,32.1081381 19.6173765,32.5732906 20.1975188,32.5732906 C20.7777918,32.5732906 21.2477672,32.1081381 21.2477672,31.5336599" id="Path"></path>
                <path d="M19.0127674,29.3414588 C19.0127674,28.7672396 18.5429228,28.3018281 17.9625189,28.3018281 C17.3825076,28.3018281 16.9120088,28.7672396 16.9120088,29.3414588 C16.9120088,29.9160665 17.3825076,30.381219 17.9625189,30.381219 C18.5429228,30.381219 19.0127674,29.9160665 19.0127674,29.3414588" id="Path"></path>
                <path d="M19.2066584,31.5404863 C19.2066584,30.865361 18.6542541,30.3184733 17.9724497,30.3184733 C17.2906452,30.3184733 16.7382409,30.865361 16.7382409,31.5404863 C16.7382409,32.2153524 17.2906452,32.7622402 17.9724497,32.7622402 C18.6542541,32.7622402 19.2066584,32.2153524 19.2066584,31.5404863" id="Path"></path>
                <path d="M12.0999949,29.2495034 C10.8082168,29.2495034 9.75718332,30.2724244 9.75718332,31.5301884 C9.75718332,32.7879524 10.8082168,33.811262 12.0999949,33.811262 C13.3916421,33.811262 14.4424139,32.7879524 14.4424139,31.5301884 C14.4424139,30.2724244 13.3916421,29.2495034 12.0999949,29.2495034 M12.0999949,33.3878191 C11.0439895,33.3878191 10.1850284,32.5549228 10.1850284,31.5301884 C10.1850284,30.5062312 11.0439895,29.6729463 12.0999949,29.6729463 C13.1560002,29.6729463 14.0148305,30.5062312 14.0148305,31.5301884 C14.0148305,32.5549228 13.1560002,33.3878191 12.0999949,33.3878191" id="Shape"></path>
                <path d="M13.3427081,31.3235446 C13.0831226,31.0078731 12.4923824,31.0594271 12.0235846,31.437404 C11.5536092,31.815899 11.3840413,32.3780716 11.6434959,32.6938727 C11.9030815,33.0091557 12.4934291,32.9579902 12.9627503,32.5793657 C13.4318098,32.2013888 13.602032,31.6390867 13.3427081,31.3235446" id="Path"></path>
                <path d="M21.7616392,28.5258292 L23.7066987,28.5258292 L23.7066987,34.8422399 L21.7616392,34.8422399 L21.7616392,28.5258292 Z M22.7730283,29.0604113 C22.372267,29.0604113 22.0470001,29.3422748 22.0470001,29.6894229 C22.0470001,30.0367005 22.372267,30.3186935 22.7730283,30.3186935 C23.1740513,30.3186935 23.4991873,30.0367005 23.4991873,29.6894229 C23.4991873,29.3422748 23.1740513,29.0604113 22.7730283,29.0604113 M22.7730283,30.9114358 C22.372267,30.9114358 22.0470001,31.1932993 22.0470001,31.5404474 C22.0470001,31.887725 22.372267,32.1694589 22.7730283,32.1694589 C23.1740513,32.1694589 23.4991873,31.887725 23.4991873,31.5404474 C23.4991873,31.1932993 23.1740513,30.9114358 22.7730283,30.9114358 M22.7730283,32.7622013 C22.372267,32.7622013 22.0470001,33.0436762 22.0470001,33.3912128 C22.0470001,33.73862 22.372267,34.0202244 22.7730283,34.0202244 C23.1740513,34.0202244 23.4991873,33.73862 23.4991873,33.3912128 C23.4991873,33.0436762 23.1740513,32.7622013 22.7730283,32.7622013" id="Shape"></path>
                <path d="M33.9460386,27.4928306 L14.2673899,27.4928306 L14.0079352,35.7207576 L34.3562203,35.7207576 L33.9460386,27.4928306 Z M14.6818893,27.916144 L33.5391278,27.916144 L33.9067867,35.2975738 L14.4493876,35.2975738 L14.6818893,27.916144 Z" id="Shape"></path>
                <path d="M29.0791636,33.8020004 C29.0791636,33.2277812 29.549139,32.7622402 30.129412,32.7622402 C30.7096851,32.7622402 31.1799221,33.2277812 31.1799221,33.8020004 C31.1799221,34.3764786 30.7096851,34.8417606 30.129412,34.8417606 C29.549139,34.8417606 29.0791636,34.3764786 29.0791636,33.8020004" id="Path"></path>
                <path d="M31.1798829,31.5336599 C31.1798829,30.9593112 31.6497274,30.4938996 32.2301313,30.4938996 C32.8101426,30.4938996 33.2807722,30.9593112 33.2807722,31.5336599 C33.2807722,32.1081381 32.8101426,32.5732906 32.2301313,32.5732906 C31.6497274,32.5732906 31.1798829,32.1081381 31.1798829,31.5336599" id="Path"></path>
                <path d="M26.8444124,31.5336599 C26.8444124,30.9593112 27.3143878,30.4938996 27.8946608,30.4938996 C28.4746722,30.4938996 28.9453017,30.9593112 28.9453017,31.5336599 C28.9453017,32.1081381 28.4746722,32.5732906 27.8946608,32.5732906 C27.3143878,32.5732906 26.8444124,32.1081381 26.8444124,31.5336599" id="Path"></path>
                <path d="M29.0791636,29.3414588 C29.0791636,28.7672396 29.549139,28.3018281 30.129412,28.3018281 C30.7096851,28.3018281 31.1799221,28.7672396 31.1799221,29.3414588 C31.1799221,29.9160665 30.7096851,30.381219 30.129412,30.381219 C29.549139,30.381219 29.0791636,29.9160665 29.0791636,29.3414588" id="Path"></path>
                <path d="M28.8855866,31.5404863 C28.8855866,30.865361 29.4379908,30.3184733 30.1196645,30.3184733 C30.8017306,30.3184733 31.354004,30.865361 31.354004,31.5404863 C31.354004,32.2153524 30.8017306,32.7622402 30.1196645,32.7622402 C29.4379908,32.7622402 28.8855866,32.2153524 28.8855866,31.5404863" id="Path"></path>
                <path d="M35.9921847,29.2495034 C34.7002758,29.2495034 33.649504,30.2724244 33.649504,31.5301884 C33.649504,32.7879524 34.7002758,33.811262 35.9921847,33.811262 C37.2838319,33.811262 38.3348654,32.7879524 38.3348654,31.5301884 C38.3348654,30.2724244 37.2838319,29.2495034 35.9921847,29.2495034 M35.9921847,33.3878191 C34.9360485,33.3878191 34.0770874,32.5549228 34.0770874,31.5301884 C34.0770874,30.5062312 34.9360485,29.6729463 35.9921847,29.6729463 C37.0480592,29.6729463 37.907282,30.5062312 37.907282,31.5301884 C37.907282,32.5549228 37.0480592,33.3878191 35.9921847,33.3878191" id="Shape"></path>
                <path d="M37.3790307,31.0982481 C37.6977557,31.3552413 37.6456816,31.9399526 37.263892,32.4041984 C36.8815791,32.8693509 36.3138666,33.0372255 35.9950108,32.7803618 C35.6764167,32.5233686 35.7280983,31.9389164 36.1105421,31.4744115 C36.4923317,31.0099067 37.060175,30.8413845 37.3790307,31.0982481" id="Path"></path>
                <path d="M24.3856247,28.5258292 L26.3302918,28.5258292 L26.3302918,34.8422399 L24.3856247,34.8422399 L24.3856247,28.5258292 Z M25.3190335,29.0604113 C24.9181414,29.0604113 24.5930053,29.3422748 24.5930053,29.6894229 C24.5930053,30.0367005 24.9181414,30.3186935 25.3190335,30.3186935 C25.7200565,30.3186935 26.0450617,30.0367005 26.0450617,29.6894229 C26.0450617,29.3422748 25.7200565,29.0604113 25.3190335,29.0604113 M25.3190335,30.9114358 C24.9181414,30.9114358 24.5930053,31.1932993 24.5930053,31.5404474 C24.5930053,31.887725 24.9181414,32.1694589 25.3190335,32.1694589 C25.7200565,32.1694589 26.0450617,31.887725 26.0450617,31.5404474 C26.0450617,31.1932993 25.7200565,30.9114358 25.3190335,30.9114358 M25.3190335,32.7622013 C24.9181414,32.7622013 24.5930053,33.0436762 24.5930053,33.3912128 C24.5930053,33.73862 24.9181414,34.0202244 25.3190335,34.0202244 C25.7200565,34.0202244 26.0450617,33.73862 26.0450617,33.3912128 C26.0450617,33.0436762 25.7200565,32.7622013 25.3190335,32.7622013" id="Shape"></path>
                <path d="M23.9736767,44.9977972 C22.5484423,44.9977972 21.3890738,46.2224008 21.3890738,47.7275726 C21.3890738,49.2330034 22.5484423,50.4578661 23.9736767,50.4578661 C25.3987802,50.4578661 26.5582795,49.2330034 26.5582795,47.7275726 C26.5582795,46.2224008 25.3987802,44.9977972 23.9736767,44.9977972 M23.9736767,50.0345528 C22.7842151,50.0345528 21.816788,48.9995852 21.816788,47.7275726 C21.816788,46.4556895 22.7842151,45.420981 23.9736767,45.420981 C25.1630074,45.420981 26.130827,46.4556895 26.130827,47.7275726 C26.130827,48.9995852 25.1630074,50.0345528 23.9736767,50.0345528" id="Shape"></path>
                <path d="M25.2173582,47.5119911 C25.5360831,47.7689842 25.4844015,48.3538251 25.1023503,48.8179413 C24.7199065,49.2832233 24.1519324,49.4510979 23.8333383,49.1942343 C23.514875,48.9372411 23.5664257,48.3527888 23.9486078,47.8881545 C24.3306591,47.4236497 24.8983715,47.2552569 25.2173582,47.5119911" id="Path"></path>
                <path d="M26.3552952,35.2975738 L21.9123793,35.2975738 L21.8540249,35.4160964 C19.0772189,41.0448171 21.8396326,45.2841684 21.8680248,45.3263961 L21.9312202,45.4209551 L26.2654085,45.4209551 L26.3200994,45.2907746 C28.5308939,40.021378 26.4344531,35.4649302 26.4129954,35.4198528 L26.3552952,35.2975738 Z M22.1802077,35.7208872 L26.0785697,35.7208872 C26.382379,36.4590949 27.8348279,40.4347173 25.9791317,44.9976417 L22.1663388,44.9976417 C21.7935771,44.3618945 19.8299384,40.6081618 22.1802077,35.7208872" id="Shape"></path>
                <path d="M23.4038708,44.3627883 L25.3580891,44.3627883 C25.3580891,44.3627883 26.5510834,43.7867556 26.3846556,40.5062065 C26.2187511,37.2259165 25.7318975,36.3912068 25.7318975,36.3912068 C25.7318975,36.3912068 22.5132465,37.4731947 22.52512,41.3059424 C22.52512,41.3059424 22.5124615,43.4740633 23.4038708,44.3627883" id="Path"></path>
                <polygon id="Path" points="23.9886316 0 21.0336222 3.55839709 21.0336222 27.7044873 21.4614673 27.7044873 21.4614673 3.70969147 23.9832672 0.67253459 26.47746 3.76642686 27.0502752 27.7095391 27.4775969 27.699565 26.9016416 3.61396669"></polygon>
                <polygon id="Path" points="24.2557404 26.9615516 26.3304619 26.9615516 25.9109905 4.07788861 24.1046208 1.54137622"></polygon>
                <path d="M44.5326525,57.0790158 L45.1495606,54.6975542 L43.4595072,54.6975542 C43.9076324,56.3950823 44.1564891,57.3558275 44.2058156,57.5796603 C44.255142,57.8034931 44.2839267,57.9643729 44.2921696,58.0621702 L44.353795,58.0621702 C44.3866357,57.7567317 44.4462985,57.4290136 44.5326525,57.0790158 M48.9241485,51.2107888 L46.0561473,59.9673394 L42.7500956,59.9673394 L39.7032369,51.2107888 L42.5836678,51.2107888 L43.0030083,52.8228252 L45.6428254,52.8228252 L46.0315495,51.2107888 L48.9241485,51.2107888 Z M39.1851126,58.1292682 L39.1851126,59.9673394 L32.1473884,59.9673394 L32.1473884,57.9033629 L35.977583,57.9033629 L31.8944757,53.0610361 L31.8944757,51.2107888 L39.3146437,51.2107888 L39.3146437,53.2747653 L35.3176287,53.2747653 L39.1851126,58.1292682 Z M30.6486223,51.2107888 L30.6486223,59.9673394 L28.1812516,59.9673394 L28.1812516,56.0409395 C28.1812516,55.601305 28.1936813,55.291851 28.21841,55.112707 L28.1936813,55.112707 C28.1690835,55.1697015 28.1329718,55.2348565 28.0857388,55.3081721 C28.0385057,55.3813582 27.9881325,55.4567463 27.93475,55.5340774 C27.8811058,55.6114085 27.8277233,55.6867967 27.7743408,55.7599827 C27.7208275,55.8332983 27.6756879,55.8963808 27.6386603,55.9493598 L24.6471467,59.9673394 L22.1305803,59.9673394 L22.1305803,51.2107888 L24.5978202,51.2107888 L24.5978202,54.8868017 C24.5978202,55.424104 24.5855213,55.9085569 24.5606618,56.3401604 L24.5855213,56.3401604 C24.7416128,56.0713797 24.9431056,55.7700863 25.1899996,55.4364097 L28.3109135,51.2107888 L30.6486223,51.2107888 Z M17.8500363,54.3494995 C17.7143557,54.0155638 17.5231993,53.7590887 17.276436,53.5800743 C17.0296728,53.4008008 16.7521623,53.3112936 16.4437736,53.3112936 C15.9379483,53.3112936 15.537972,53.5107742 15.2441065,53.9097354 C14.9499794,54.3086966 14.8030467,54.8643926 14.8030467,55.5768233 C14.8030467,56.3054456 14.951157,56.8693021 15.2471159,57.2682633 C15.5432056,57.6672245 15.9565275,57.8667051 16.4869507,57.8667051 C16.9721034,57.8667051 17.3545472,57.6590639 17.6341511,57.2439111 C17.9137551,56.8286288 18.0536225,56.2607568 18.0536225,55.5401655 C18.0536225,55.0800648 17.9857168,54.6831761 17.8500363,54.3494995 M20.3327152,57.9613936 C19.9687198,58.6514151 19.4526889,59.1826294 18.7844917,59.5551659 C18.1162946,59.9275728 17.3586032,60.1138411 16.5115485,60.1138411 C15.6316531,60.1138411 14.8462237,59.9194123 14.1553913,59.5306842 C13.4645589,59.1419561 12.9279863,58.5913119 12.5455425,57.8788812 C12.1632296,57.1664505 11.9719423,56.3645126 11.9719423,55.4730675 C11.9719423,54.6221661 12.1610053,53.8598653 12.539393,53.1861649 C12.9176499,52.512335 13.4470264,51.9892813 14.1276534,51.6168743 C14.8081494,51.2443378 15.5637474,51.0580696 16.3944472,51.0580696 C17.2455579,51.0580696 18.0145015,51.2504259 18.7012778,51.6351385 C19.3879234,52.019851 19.9225334,52.5592259 20.3048464,53.2533924 C20.6872901,53.9474295 20.8785774,54.7340825 20.8785774,55.6134811 C20.8785774,56.4887346 20.6965797,57.2713721 20.3327152,57.9613936 M10.7260888,51.2107888 L10.7260888,59.9673394 L6.79697958,59.9673394 L5.66207803,55.2348565 C5.56342507,54.730067 5.49146336,54.2923755 5.44632374,53.922041 L5.40929617,53.922041 C5.39686642,54.0847343 5.36703502,54.3158209 5.31980197,54.6150418 C5.27243809,54.9142627 5.2343638,55.112707 5.20570996,55.2103748 L3.99060381,59.9673394 L0,59.9673394 L0,51.2107888 L2.33757796,51.2107888 L2.33757796,55.3386123 C2.33757796,55.6805791 2.30879327,56.5354959 2.25122391,57.9033629 L2.32527905,57.9033629 C2.48150137,57.0402855 2.57819174,56.5436565 2.61521931,56.4133465 L3.9783049,51.2107888 L6.4824415,51.2107888 L7.7839017,56.474486 C7.85376997,56.7389921 7.95451636,57.2152844 8.08614087,57.9033629 L8.16019601,57.9033629 L8.14161681,57.5003862 C8.11283212,56.9588093 8.09843978,56.4623099 8.09843978,56.0103697 L8.09843978,51.2107888 L10.7260888,51.2107888 Z" id="Shape"></path>
                <path d="M31.0463481,62.5055487 C30.4006553,62.1919497 29.6709636,62.0353444 28.8567496,62.0353444 C27.8369868,62.0353444 26.9950348,62.3802904 26.3310245,63.070312 C25.6668833,63.7603335 25.3348128,64.7017783 25.3348128,65.8945168 C25.3348128,67.1320737 25.6823224,68.1233887 26.37708,68.8683321 C27.0720992,69.6134051 27.9746299,69.9858121 29.0849336,69.9858121 C29.77171,69.9858121 30.4255148,69.8473415 31.0463481,69.5706593 L31.0463481,70.2118469 C30.4255148,70.4275191 29.775766,70.53542 29.0973634,70.53542 C27.8225944,70.53542 26.7719535,70.1069253 25.9454406,69.2500655 C25.1189276,68.3930761 24.7057366,67.2542232 24.7057366,65.8335068 C24.7057366,64.5389555 25.0871336,63.4896098 25.8499277,62.6857289 C26.612591,61.8815889 27.5983356,61.4796485 28.8074231,61.4796485 C29.5846096,61.4796485 30.3309179,61.6262797 31.0463481,61.919283 L31.0463481,62.5055487 Z M22.0164621,64.911492 L18.605608,64.911492 L20.0920752,68.9722175 C20.1577566,69.1390558 20.2256623,69.3569301 20.2956614,69.6255812 L20.3202593,69.6255812 C20.3531,69.5237684 20.3839781,69.4219556 20.4127628,69.3202723 C20.4415474,69.2021383 20.478575,69.0820614 20.5238455,68.9599119 L22.0164621,64.911492 Z M23.9224007,61.6323677 L20.6224984,70.3889183 L20.0427487,70.3889183 L16.7058189,61.6323677 L17.378203,61.6323677 L18.3897229,64.355796 L22.2261978,64.355796 L23.2377177,61.6323677 L23.9224007,61.6323677 Z" id="Shape"></path>
            </g>
        </g>
    </g>
</svg>